<svg width="22" height="22" viewBox="0 0 22 22" fill="none" xmlns="http://www.w3.org/2000/svg">
<path d="M9.281 12.375C9.281 12.579 9.22052 12.7784 9.1072 12.948C8.99389 13.1175 8.83283 13.2497 8.64439 13.3278C8.45596 13.4058 8.24861 13.4262 8.04856 13.3865C7.84852 13.3467 7.66477 13.2484 7.52055 13.1042C7.37632 12.96 7.27811 12.7762 7.23832 12.5762C7.19852 12.3762 7.21895 12.1688 7.297 11.9804C7.37505 11.7919 7.50723 11.6309 7.67682 11.5176C7.84641 11.4043 8.04579 11.3438 8.24975 11.3438C8.52325 11.3438 8.78556 11.4524 8.97895 11.6458C9.17235 11.8392 9.281 12.1015 9.281 12.375ZM13.7498 11.3438C13.5458 11.3438 13.3464 11.4043 13.1768 11.5176C13.0072 11.6309 12.8751 11.7919 12.797 11.9804C12.7189 12.1688 12.6985 12.3762 12.7383 12.5762C12.7781 12.7762 12.8763 12.96 13.0205 13.1042C13.1648 13.2484 13.3485 13.3467 13.5486 13.3865C13.7486 13.4262 13.956 13.4058 14.1444 13.3278C14.3328 13.2497 14.4939 13.1175 14.6072 12.948C14.7205 12.7784 14.781 12.579 14.781 12.375C14.781 12.1015 14.6724 11.8392 14.479 11.6458C14.2856 11.4524 14.0233 11.3438 13.7498 11.3438ZM20.8319 16.0303C19.4073 17.2685 17.4921 18.2071 15.2932 18.7446C15.1859 18.7709 15.0758 18.7843 14.9653 18.7843C14.7107 18.7839 14.4613 18.7124 14.2452 18.5778C14.0291 18.4432 13.855 18.2509 13.7424 18.0226L12.9268 16.3915C12.287 16.4639 11.6436 16.5001 10.9998 16.5C10.3559 16.5001 9.71249 16.4639 9.07269 16.3915L8.25714 18.0226C8.14453 18.2509 7.97037 18.4432 7.75429 18.5778C7.53821 18.7124 7.28882 18.7839 7.03425 18.7843C6.92374 18.7843 6.81364 18.7709 6.70631 18.7446C4.50743 18.207 2.59223 17.2685 1.16781 16.0304C0.967183 15.8564 0.820889 15.6283 0.746414 15.3734C0.671939 15.1186 0.672432 14.8476 0.747835 14.593L3.66756 4.86082C3.72604 4.66463 3.82771 4.48402 3.9651 4.33225C4.10249 4.18048 4.27212 4.06139 4.46154 3.98374C5.32391 3.63061 6.2158 3.3544 7.1268 3.15831C7.45854 3.08542 7.80551 3.13794 8.10081 3.30573C8.39611 3.47353 8.61883 3.74472 8.72602 4.06701L9.23416 5.59146C10.4081 5.4696 11.5915 5.4696 12.7655 5.59146L13.2737 4.06701C13.3809 3.74476 13.6036 3.47361 13.8989 3.30582C14.1941 3.13803 14.5411 3.08548 14.8728 3.15831C15.7839 3.3544 16.6759 3.63064 17.5383 3.98382C17.7277 4.06148 17.8973 4.18056 18.0346 4.33231C18.172 4.48407 18.2736 4.66465 18.3321 4.86082L21.2518 14.593C21.3272 14.8476 21.3277 15.1185 21.2532 15.3734C21.1788 15.6283 21.0325 15.8563 20.8319 16.0303ZM19.9298 14.9926L17.015 5.25587C16.2274 4.9331 15.4127 4.68081 14.5805 4.50194L14.148 5.79478C14.7129 5.90248 15.2706 6.04484 15.818 6.22103C15.9915 6.27732 16.1354 6.4002 16.2183 6.56265C16.3011 6.72509 16.3161 6.91379 16.2598 7.08724C16.2035 7.26069 16.0806 7.40467 15.9182 7.48752C15.7557 7.57037 15.567 7.58529 15.3936 7.529C14.0753 7.10103 12.5559 6.87502 10.9998 6.87502C9.44394 6.87502 7.92448 7.10103 6.60577 7.529C6.43232 7.58527 6.24362 7.57032 6.0812 7.48746C5.91877 7.4046 5.79591 7.2606 5.73964 7.08716C5.68338 6.91371 5.69833 6.72501 5.78119 6.56259C5.86405 6.40016 6.00804 6.2773 6.18149 6.22103C6.72919 6.04478 7.2872 5.90237 7.85238 5.79461L7.42148 4.50194C6.58895 4.68038 5.77387 4.9323 4.98584 5.25475L2.06483 14.988C3.32966 16.0876 5.04583 16.9232 7.03287 17.4089L7.65094 16.1652C7.15443 16.0634 6.66388 15.9344 6.18149 15.7789C6.00952 15.7215 5.8672 15.5984 5.78552 15.4365C5.70384 15.2747 5.68942 15.0871 5.74539 14.9146C5.80136 14.7421 5.9232 14.5988 6.08437 14.5157C6.24554 14.4327 6.433 14.4166 6.60594 14.4711C7.92422 14.8989 9.44359 15.125 10.9998 15.125C12.5558 15.125 14.0752 14.899 15.3936 14.471C15.567 14.4148 15.7557 14.4297 15.9181 14.5125C16.0806 14.5954 16.2035 14.7394 16.2597 14.9128C16.316 15.0863 16.3011 15.275 16.2182 15.4374C16.1354 15.5999 15.9914 15.7227 15.8179 15.779C15.3363 15.9343 14.8465 16.063 14.3508 16.1648L14.9721 17.4076C16.9537 16.9232 18.6698 16.0876 19.9298 14.9926V14.9926Z" fill="#0F001A"/>
</svg>
