<svg width="22" height="22" viewBox="0 0 22 22" fill="none" xmlns="http://www.w3.org/2000/svg">
<path d="M4.56768 6.59727C5.67538 6.59727 6.57335 5.6993 6.57335 4.5916C6.57335 3.4839 5.67538 2.58594 4.56768 2.58594C3.45998 2.58594 2.56201 3.4839 2.56201 4.5916C2.56201 5.6993 3.45998 6.59727 4.56768 6.59727Z" fill="#0F001A"/>
<path d="M8.46708 8.1171V19.2445H11.922V13.7418C11.922 12.2898 12.1952 10.8836 13.9955 10.8836C15.7711 10.8836 15.7931 12.5437 15.7931 13.8334V19.2454H19.2498V13.1432C19.2498 10.1457 18.6045 7.8421 15.101 7.8421C13.4189 7.8421 12.2914 8.76519 11.8303 9.63877H11.7836V8.1171H8.46708V8.1171ZM2.83691 8.1171H6.29733V19.2445H2.83691V8.1171Z" fill="#0F001A"/>
</svg>
