<svg width="20" height="20" viewBox="0 0 20 20" fill="none" xmlns="http://www.w3.org/2000/svg">
<path d="M16.3251 5.57502C15.4944 5.39235 14.7429 4.95122 14.1785 4.31493C13.6141 3.67864 13.2657 2.87991 13.1835 2.03335V1.66669H10.3085V13.0584C10.309 13.5638 10.1506 14.0567 9.85549 14.4671C9.56041 14.8775 9.14368 15.1846 8.66434 15.345C8.185 15.5054 7.66733 15.5109 7.18469 15.3608C6.70204 15.2106 6.27887 14.9124 5.97512 14.5084C5.70299 14.1507 5.53636 13.7241 5.49406 13.2767C5.45176 12.8293 5.53549 12.379 5.73577 11.9767C5.93605 11.5744 6.2449 11.2362 6.62738 11.0002C7.00987 10.7643 7.45073 10.6401 7.90012 10.6417C8.14865 10.6403 8.39595 10.6768 8.63345 10.75V7.83335C8.35707 7.79913 8.07854 7.7852 7.80012 7.79169C6.77455 7.81909 5.77922 8.14497 4.93602 8.72941C4.09283 9.31386 3.43836 10.1315 3.05277 11.0822C2.66717 12.0329 2.56719 13.0755 2.76505 14.0822C2.96292 15.0888 3.45005 16.016 4.16679 16.75C4.90136 17.4969 5.84136 18.0085 6.86737 18.2199C7.89337 18.4312 8.95905 18.3328 9.929 17.9372C10.899 17.5415 11.7294 16.8664 12.3148 15.9977C12.9002 15.129 13.2142 14.1059 13.2168 13.0584V7.22502C14.3763 8.05331 15.7668 8.49639 17.1918 8.49169V5.65835C16.9119 5.65951 16.6326 5.63158 16.3585 5.57502H16.3251Z" fill="#0F001A"/>
</svg>
