<svg width="20" height="16" viewBox="0 0 20 16" fill="none" xmlns="http://www.w3.org/2000/svg">
<path fill-rule="evenodd" clip-rule="evenodd" d="M9.93421 4.25625L9.97617 4.9483L9.2767 4.86356C6.73059 4.53872 4.50625 3.4371 2.61765 1.58693L1.69434 0.668915L1.45652 1.34684C0.952891 2.85804 1.27465 4.45398 2.32387 5.52735C2.88345 6.12054 2.75755 6.20528 1.79227 5.85219C1.45652 5.7392 1.16273 5.65446 1.13476 5.69683C1.03683 5.7957 1.37258 7.08092 1.63838 7.58937C2.00211 8.29553 2.74356 8.98758 3.55495 9.39716L4.24044 9.72199L3.42905 9.73612C2.64563 9.73612 2.61765 9.75024 2.70159 10.0468C2.98138 10.9649 4.08656 11.9394 5.31764 12.3631L6.185 12.6597L5.42956 13.1116C4.31039 13.7613 2.99537 14.1285 1.68035 14.1567C1.05082 14.1709 0.533203 14.2273 0.533203 14.2697C0.533203 14.411 2.23993 15.2019 3.23319 15.5126C6.21298 16.4306 9.75234 16.0351 12.4104 14.4674C14.299 13.3517 16.1876 11.1343 17.0689 8.98758C17.5445 7.84359 18.0202 5.75333 18.0202 4.75057C18.0202 4.10089 18.0622 4.01615 18.8456 3.23937C19.3072 2.78742 19.7409 2.2931 19.8248 2.15187C19.9647 1.88352 19.9508 1.88352 19.2373 2.12362C18.0482 2.54732 17.8803 2.49083 18.4679 1.85528C18.9015 1.40333 19.4191 0.584174 19.4191 0.344077C19.4191 0.301707 19.2093 0.372324 18.9715 0.499434C18.7197 0.640668 18.1601 0.852518 17.7404 0.979629L16.985 1.21973L16.2995 0.753655C15.9217 0.499434 15.3901 0.216967 15.1104 0.132227C14.3969 -0.0655006 13.3057 -0.0372539 12.6622 0.18872C10.9135 0.824272 9.8083 2.46258 9.93421 4.25625Z" fill="#0F001A"/>
</svg>
