<svg width="17" height="18" viewBox="0 0 17 18" fill="none" xmlns="http://www.w3.org/2000/svg">
<path fill-rule="evenodd" clip-rule="evenodd" d="M11.2473 2.83009C9.91768 2.23767 8.43223 2.09091 7.01243 2.41169C5.59263 2.73248 4.31456 3.50362 3.36884 4.61012C2.42312 5.71661 1.86041 7.09917 1.76463 8.5516C1.66886 10.004 2.04516 11.4485 2.8374 12.6696C3.62964 13.8907 4.79539 14.823 6.16077 15.3274C7.52615 15.8319 9.01802 15.8814 10.4139 15.4687C11.8097 15.056 13.0348 14.2031 13.9063 13.0373C14.7778 11.8715 15.2492 10.4552 15.25 8.99959V8.31002C15.25 7.89581 15.5858 7.56002 16 7.56002C16.4142 7.56002 16.75 7.89581 16.75 8.31002V9.00002C16.749 10.7791 16.1729 12.5106 15.1077 13.9355C14.0425 15.3604 12.5452 16.4027 10.8392 16.9072C9.13313 17.4116 7.30974 17.351 5.64094 16.7345C3.97214 16.1179 2.54734 14.9785 1.57904 13.486C0.610745 11.9936 0.150828 10.2281 0.267883 8.45291C0.384939 6.67772 1.0727 4.98792 2.22858 3.63553C3.38447 2.28315 4.94655 1.34064 6.68186 0.94857C8.41716 0.5565 10.2327 0.735878 11.8578 1.45995C12.2361 1.62853 12.4062 2.07192 12.2376 2.45027C12.069 2.82863 11.6256 2.99868 11.2473 2.83009Z" fill="white"/>
<path fill-rule="evenodd" clip-rule="evenodd" d="M16.5301 2.46943C16.8231 2.76217 16.8233 3.23705 16.5306 3.53009L9.0306 11.0376C8.88997 11.1784 8.69917 11.2575 8.50019 11.2575C8.30122 11.2576 8.11037 11.1785 7.96967 11.0379L5.71967 8.78785C5.42678 8.49496 5.42678 8.02008 5.71967 7.72719C6.01257 7.4343 6.48744 7.4343 6.78033 7.72719L8.49974 9.4466L15.4694 2.46996C15.7622 2.17692 16.237 2.17668 16.5301 2.46943Z" fill="white"/>
</svg>
