<svg width="46" height="46" viewBox="0 0 46 46" fill="none" xmlns="http://www.w3.org/2000/svg">
<g clip-path="url(#clip0_1:5237)">
<path d="M16.2545 20.5563C14.0407 20.5563 12.2402 22.5688 12.2402 25.0413C12.2402 27.5138 14.0371 29.5227 16.2545 29.5227C18.4718 29.5227 20.2651 27.5138 20.2651 25.0413C20.2651 22.5688 18.4646 20.5563 16.2545 20.5563ZM16.2545 28.1032C14.817 28.1032 13.6777 26.7375 13.6777 25.0592C13.6777 23.381 14.8313 22.0117 16.2545 22.0117C17.6776 22.0117 18.8276 23.3774 18.8276 25.0592C18.8276 26.7411 17.674 28.0852 16.2545 28.0852V28.1032Z" fill="white"/>
<path d="M43.7826 21.4116C42.7992 17.5625 41.4115 13.8282 39.6426 10.271C39.5823 10.1587 39.4945 10.0635 39.3875 9.99425C37.6505 8.96061 35.8175 8.09767 33.9142 7.41753C30.3851 6.13457 28.7176 6.10941 28.6493 6.10941C28.4749 6.10769 28.3059 6.16945 28.1736 6.28318C28.0414 6.3969 27.955 6.55484 27.9306 6.72753L27.715 8.22613C24.5745 7.91467 21.411 7.91467 18.2706 8.22613L18.055 6.72753C18.0306 6.55484 17.9442 6.3969 17.8119 6.28318C17.6797 6.16945 17.5106 6.10769 17.3362 6.10941C17.2679 6.10941 15.6004 6.10941 12.0714 7.40675C10.1726 8.09119 8.3444 8.95773 6.61247 9.99425C6.50541 10.0635 6.41763 10.1587 6.35731 10.271C4.58826 13.8281 3.20053 17.5624 2.21731 21.4116C0.35934 28.9153 -3.4437e-05 32.6708 -3.4437e-05 32.8253C-0.00877607 32.9224 0.00232727 33.0203 0.0326001 33.113C0.062873 33.2057 0.111682 33.2912 0.176059 33.3644C2.02346 35.318 4.24872 36.8757 6.71668 37.9428C8.98888 38.9093 11.3812 39.5645 13.8287 39.8907C13.9661 39.9033 14.1042 39.8761 14.2265 39.8124C14.3489 39.7487 14.4503 39.6511 14.5187 39.5313L16.4593 36.2071C18.6199 36.575 20.8083 36.7542 23 36.7425C25.1918 36.7518 27.3803 36.5702 29.5406 36.1999L31.4812 39.5313C31.5439 39.6399 31.634 39.7302 31.7424 39.7933C31.8509 39.8563 31.9739 39.8899 32.0993 39.8907H32.1712C34.6169 39.5688 37.0079 38.9184 39.2797 37.9572C41.7476 36.8901 43.9729 35.3324 45.8203 33.3788C45.8847 33.3056 45.9335 33.22 45.9637 33.1274C45.994 33.0347 46.0051 32.9368 45.9964 32.8397C46 32.6708 45.6586 28.9153 43.7826 21.4116ZM38.7298 36.6168C36.7235 37.4502 34.6258 38.0436 32.4803 38.3849L31.014 35.8693C32.6959 35.4236 36.1962 34.2664 38.8592 31.8443C38.93 31.7808 38.9876 31.704 39.0287 31.6182C39.0698 31.5325 39.0936 31.4395 39.0988 31.3446C39.104 31.2496 39.0904 31.1546 39.0588 31.0649C39.0273 30.9752 38.9784 30.8926 38.9149 30.8218C38.8514 30.751 38.7746 30.6934 38.6889 30.6523C38.6031 30.6112 38.5102 30.5874 38.4152 30.5822C38.3203 30.5771 38.2252 30.5906 38.1356 30.6222C38.0459 30.6537 37.9633 30.7027 37.8925 30.7661C34.6581 33.7238 29.8209 34.6618 29.7706 34.6725H29.749C27.5254 35.1031 25.2649 35.3149 23 35.305C20.7357 35.322 18.4753 35.1174 16.2509 34.6941H16.2293C16.179 34.6941 11.3598 33.7453 8.10747 30.7877C7.9645 30.6595 7.77646 30.5933 7.58472 30.6038C7.39298 30.6142 7.21324 30.7004 7.08504 30.8434C6.95685 30.9864 6.8907 31.1744 6.90114 31.3661C6.91159 31.5579 6.99778 31.7376 7.14075 31.8658C9.80372 34.288 13.304 35.4596 14.9859 35.8908L13.5197 38.4064C11.3736 38.0675 9.27565 37.4739 7.27012 36.6383C5.09972 35.6813 3.13034 34.3216 1.46622 32.6313C1.58481 31.5855 2.06997 27.9343 3.62247 21.7638C4.56741 18.0897 5.88225 14.5209 7.54684 11.1119C9.15216 10.1852 10.8357 9.40116 12.5781 8.76878C13.9244 8.25145 15.3183 7.86747 16.7397 7.62238L16.8654 8.48128C15.4279 8.84066 11.8881 9.86847 9.08497 11.9061C9.00875 11.9618 8.94424 12.032 8.89514 12.1126C8.84603 12.1932 8.81329 12.2827 8.79877 12.376C8.76946 12.5644 8.81617 12.7567 8.92864 12.9106C9.04111 13.0645 9.21012 13.1675 9.39849 13.1968C9.49176 13.2113 9.58698 13.2073 9.6787 13.185C9.77043 13.1627 9.85687 13.1226 9.93309 13.0669C13.1028 10.7633 17.48 9.81097 17.789 9.74269C19.5182 9.53552 21.2584 9.43471 23 9.44082C24.7427 9.43387 26.4842 9.53469 28.2145 9.74269C28.5415 9.81097 32.8864 10.7597 36.0704 13.0669C36.2244 13.1794 36.4167 13.2261 36.605 13.1968C36.7934 13.1675 36.9624 13.0645 37.0749 12.9106C37.1874 12.7567 37.2341 12.5644 37.2048 12.376C37.1754 12.1876 37.0725 12.0186 36.9186 11.9061C34.1154 9.86847 30.59 8.84425 29.1381 8.48128L29.2639 7.62238C30.6838 7.8686 32.0764 8.25255 33.4218 8.76878C35.1642 9.40116 36.8478 10.1852 38.4531 11.1119C40.1275 14.5197 41.452 18.0886 42.4062 21.7638C43.9479 27.9343 44.4331 31.5855 44.5625 32.6313C42.888 34.3169 40.9087 35.6693 38.7298 36.6168V36.6168Z" fill="white"/>
<path d="M29.7455 20.5563C27.5353 20.5563 25.7349 22.5688 25.7349 25.0413C25.7349 27.5138 27.5317 29.5227 29.7455 29.5227C31.9592 29.5227 33.7597 27.5138 33.7597 25.0413C33.7597 22.5688 31.9592 20.5563 29.7455 20.5563ZM29.7455 28.1032C28.308 28.1032 27.1724 26.7375 27.1724 25.0592C27.1724 23.381 28.326 22.0117 29.7455 22.0117C31.165 22.0117 32.3222 23.3774 32.3222 25.0592C32.3222 26.7411 31.1686 28.0852 29.7455 28.0852V28.1032Z" fill="white"/>
</g>
<defs>
<clipPath id="clip0_1:5237">
<rect width="46" height="46" fill="white"/>
</clipPath>
</defs>
</svg>
