<svg width="22" height="22" viewBox="0 0 22 22" fill="none" xmlns="http://www.w3.org/2000/svg">
<path d="M4.56768 6.59727C5.67538 6.59727 6.57335 5.6993 6.57335 4.5916C6.57335 3.4839 5.67538 2.58594 4.56768 2.58594C3.45998 2.58594 2.56201 3.4839 2.56201 4.5916C2.56201 5.6993 3.45998 6.59727 4.56768 6.59727Z" fill="#4A6FDA"/>
<path d="M8.46708 8.11704V19.2445H11.922V13.7417C11.922 12.2897 12.1952 10.8835 13.9955 10.8835C15.7711 10.8835 15.7931 12.5436 15.7931 13.8334V19.2454H19.2498V13.1431C19.2498 10.1456 18.6045 7.84204 15.101 7.84204C13.4189 7.84204 12.2914 8.76512 11.8303 9.63871H11.7836V8.11704H8.46708V8.11704ZM2.83691 8.11704H6.29733V19.2445H2.83691V8.11704Z" fill="#4A6FDA"/>
</svg>
