<svg width="144" height="90" viewBox="0 0 144 90" fill="none" xmlns="http://www.w3.org/2000/svg">
<path fill-rule="evenodd" clip-rule="evenodd" d="M142.817 6.91949C143.489 7.37487 143.489 7.37514 143.489 7.37547L143.486 7.37963L143.479 7.39062C143.472 7.40001 143.463 7.4135 143.451 7.43098C143.427 7.46593 143.392 7.51682 143.345 7.58276C143.253 7.71463 143.116 7.90668 142.936 8.15163C142.575 8.64149 142.042 9.34321 141.345 10.1985C139.951 11.9085 137.9 14.2356 135.264 16.712C130 21.6566 122.361 27.2371 112.93 29.6426C109.549 30.5209 106.205 31.123 103.001 31.5185L102.652 31.5616L102.382 31.3347C99.7287 29.105 106.833 25.842 103.15 24.6373L100.915 23.9206C89.5691 20.2029 80.0088 23.7029 76.132 25.0427L75.4604 25.2749L75.1427 24.6373C75.0684 24.4881 75.0182 24.3196 75.0081 24.1371C74.7576 22.193 75.4772 20.0907 76.8592 18.0173C78.2581 15.9185 80.3878 13.7677 83.0999 11.7059C88.527 7.58006 96.3846 3.73561 105.723 1.34561C115.153 -1.06814 124.526 0.156744 131.509 1.96349C135.006 2.86825 137.918 3.92268 139.958 4.75192C140.979 5.16668 141.782 5.5255 142.332 5.78171C142.607 5.90982 142.819 6.01232 142.963 6.08337C143.036 6.1189 143.091 6.14657 143.129 6.16565C143.147 6.1752 143.162 6.18259 143.172 6.18775L143.184 6.1938L143.188 6.19609C143.189 6.19628 143.189 6.19642 142.817 6.91949ZM141.596 7.23276C141.251 7.70075 140.746 8.3634 140.089 9.16844C138.732 10.8342 136.729 13.1063 134.155 15.5241C129 20.3674 121.595 25.754 112.529 28.0662L112.527 28.0666L112.525 28.0671C109.341 28.8942 108.421 30.1887 105.384 30.5767C102.656 28.3313 104.707 25.1606 100.915 23.9206C94.6428 21.8654 80.8752 22.0431 76.5835 23.2039C76.6248 21.9541 77.1508 20.5069 78.2072 18.9219C79.4769 17.0169 81.4626 14.9921 84.0793 13.0028C89.3098 9.02636 96.9634 5.26672 106.123 2.92226C115.191 0.601543 124.265 1.76944 131.104 3.53908C134.519 4.42252 137.362 5.45219 139.349 6.26C140.31 6.65034 141.069 6.9885 141.596 7.23276ZM142.817 6.91949L143.189 6.19643L144 6.61613L143.489 7.37487L142.817 6.91949Z" fill="#4A6FDA"/>
<path fill-rule="evenodd" clip-rule="evenodd" d="M113.443 13.5411L125.421 1.55233L124.841 0.986328L112.438 13.3997L112.568 13.6573L112.933 13.4781C112.568 13.6573 112.568 13.6577 112.568 13.6581L112.569 13.659L112.57 13.6615C112.571 13.6634 112.572 13.6658 112.574 13.6687C112.577 13.6746 112.581 13.6825 112.586 13.6923C112.597 13.712 112.612 13.7396 112.632 13.7742C112.672 13.8434 112.732 13.9411 112.813 14.0616C112.975 14.3024 113.223 14.6345 113.574 15.0117C114.275 15.7666 115.384 16.7016 117.028 17.4465C120.325 18.9404 125.706 19.6417 134.137 16.7249L133.868 15.9646C125.58 18.8318 120.426 18.0997 117.368 16.7143C115.835 16.0196 114.811 15.1533 114.174 14.467C113.855 14.1236 113.633 13.8251 113.492 13.6154C113.474 13.5892 113.458 13.5644 113.443 13.5411Z" fill="#4A6FDA"/>
<path fill-rule="evenodd" clip-rule="evenodd" d="M119.711 26.6301C119.711 26.6301 119.711 26.63 120.02 26.3749C120.329 26.1198 120.329 26.1196 120.329 26.1193L120.328 26.1184L120.325 26.1156C120.323 26.1132 120.32 26.1098 120.316 26.1054C120.309 26.0967 120.297 26.0841 120.282 26.0677C120.253 26.0351 120.209 25.9876 120.151 25.9263C120.036 25.8038 119.864 25.6266 119.637 25.404C119.183 24.959 118.508 24.3327 117.617 23.6017C115.835 22.14 113.188 20.2579 109.718 18.5696C102.773 15.1903 92.543 12.5918 79.3973 15.6808L79.5887 16.4456C92.5204 13.4069 102.554 15.9642 109.353 19.2728C112.756 20.9283 115.35 22.7731 117.092 24.2023C117.963 24.9167 118.621 25.5269 119.059 25.957C119.278 26.172 119.443 26.3419 119.552 26.4573C119.606 26.5149 119.647 26.559 119.673 26.5881C119.686 26.6027 119.696 26.6136 119.702 26.6206L119.709 26.6283L119.711 26.6299L119.711 26.6301Z" fill="#4A6FDA"/>
<path fill-rule="evenodd" clip-rule="evenodd" d="M105.724 23.6712C105.724 23.6712 105.724 23.6711 105.876 23.5225C106.028 23.3739 106.028 23.3738 106.027 23.3736L106.027 23.3732L106.026 23.372L106.023 23.3678C106.02 23.3642 106.016 23.3591 106.011 23.3526C106.001 23.3395 105.986 23.3207 105.966 23.2965C105.927 23.248 105.869 23.1782 105.792 23.0907C105.638 22.9158 105.41 22.6701 105.109 22.3835C104.508 21.8104 103.614 21.0731 102.444 20.4117C100.101 19.0875 96.6501 18.0706 92.2192 19.2797L92.3125 19.7226C96.6391 18.542 99.9937 19.5357 102.266 20.8197C103.403 21.4623 104.27 22.1784 104.852 22.7327C105.143 23.0099 105.363 23.2463 105.509 23.4126C105.582 23.4958 105.636 23.5614 105.672 23.6057C105.69 23.6279 105.704 23.6447 105.712 23.6558C105.717 23.6613 105.72 23.6654 105.722 23.668L105.724 23.6707L105.724 23.6712L105.724 23.6712Z" fill="#4A6FDA"/>
<path d="M122.361 4.80137L125.034 1.97256H126.647C127.891 2.28116 130.379 2.91893 130.379 3.00122C130.379 3.10409 135.674 4.80137 136.43 4.80137C137.035 4.80137 138.733 5.52143 139.506 5.88146L142.027 6.34436V7.68162L140.414 9.8418L138.145 12.9792L132.85 16.6824L131.64 17.351L130.379 17.7625L128.816 18.2254L124.025 18.7397L121.201 18.2254L118.882 17.7625L115.302 15.9623L112.932 13.6478L114.646 12.002L117.571 9.32747L119.739 7.27015L122.361 4.80137Z" fill="#4A6FDA"/>
<path fill-rule="evenodd" clip-rule="evenodd" d="M124.953 1.97256H126.725L126.755 1.97963C127.386 2.12952 128.332 2.35943 129.121 2.56203C129.515 2.66323 129.872 2.75818 130.132 2.8332C130.261 2.8705 130.37 2.90405 130.449 2.93175C130.487 2.94517 130.525 2.95975 130.556 2.97489C130.571 2.98182 130.595 2.99389 130.618 3.01132C130.624 3.0156 130.633 3.0219 130.642 3.0303C130.674 3.0443 130.724 3.06432 130.795 3.0902C130.938 3.14314 131.147 3.21448 131.403 3.29835C131.915 3.46579 132.606 3.68021 133.322 3.89172C134.039 4.10329 134.777 4.31125 135.383 4.46608C135.686 4.54355 135.954 4.60715 136.168 4.6512C136.39 4.69685 136.533 4.7168 136.599 4.7168C136.789 4.7168 137.04 4.76895 137.302 4.84063C137.571 4.91408 137.875 5.0148 138.18 5.12521C138.777 5.34074 139.392 5.59773 139.789 5.77408L142.521 6.25455V7.84462L140.837 10.0041L140.835 10.0072L138.514 13.0816L133.107 16.7052L131.849 17.3712L130.547 17.7785L128.939 18.2347L124.031 18.7397L121.134 18.2342L118.751 17.7783L115.06 16.0003L112.438 13.5467L114.372 11.7679L117.334 9.17282L119.527 7.17859L119.528 7.17793L122.177 4.78791L124.953 1.97256ZM125.17 2.47152L122.534 5.14464L119.875 7.54391L119.874 7.54456L117.678 9.54128L114.718 12.1353L113.18 13.5498L115.357 15.5868L118.915 17.3014L121.228 17.7437L124.049 18.2361L128.841 17.7431L130.398 17.3012L131.648 16.9102L132.841 16.2789L138.155 12.7177L140.427 9.70635L142.01 7.6762V6.67171L139.636 6.25405L139.607 6.24102C139.22 6.06831 138.6 5.80887 138.003 5.5932C137.705 5.48531 137.415 5.38957 137.165 5.32114C136.908 5.25093 136.714 5.21575 136.599 5.21575C136.473 5.21575 136.281 5.18425 136.063 5.13946C135.838 5.09308 135.561 5.02726 135.254 4.94881C134.639 4.7918 133.894 4.58189 133.175 4.36934C132.455 4.15675 131.758 3.94082 131.241 3.77147C130.983 3.68694 130.767 3.61328 130.614 3.55706C130.539 3.52924 130.475 3.50412 130.427 3.48308C130.405 3.47308 130.379 3.46075 130.355 3.44689C130.345 3.44095 130.327 3.42959 130.308 3.41303C130.299 3.40978 130.289 3.4058 130.275 3.4011C130.211 3.37852 130.114 3.34829 129.987 3.31168C129.735 3.23889 129.384 3.14548 128.991 3.04461C128.218 2.84621 127.293 2.62109 126.664 2.47152H125.17Z" fill="#4A6FDA"/>
<path fill-rule="evenodd" clip-rule="evenodd" d="M1.18271 6.91949C0.510782 7.37487 0.510962 7.37514 0.511187 7.37547L0.513997 7.37963L0.521458 7.39062C0.527845 7.40001 0.537054 7.4135 0.549068 7.43098C0.573096 7.46593 0.608344 7.51682 0.65467 7.58276C0.74732 7.71463 0.884302 7.90668 1.06447 8.15163C1.42479 8.64149 1.95805 9.34321 2.65514 10.1985C4.04886 11.9085 6.10015 14.2356 8.73628 16.712C14 21.6566 21.6394 27.2371 31.0698 29.6426C34.4508 30.5209 37.7948 31.123 40.9987 31.5185L41.3484 31.5616L41.6184 31.3347C44.2713 29.105 37.1666 26.4796 40.8504 25.2749L51.5023 23.2039C58.0404 21.0615 63.9912 23.7029 67.868 25.0427L68.5396 25.2749L68.8573 24.6373C68.9316 24.4881 68.9818 24.3196 68.9919 24.1371C69.2424 22.193 68.5228 20.0907 67.1408 18.0173C65.7419 15.9185 63.6122 13.7677 60.9001 11.7059C55.473 7.58006 47.6154 3.73561 38.2774 1.34561C28.8466 -1.06814 19.4736 0.156744 12.4906 1.96349C8.99375 2.86825 6.08172 3.92268 4.04169 4.75192C3.02133 5.16668 2.21814 5.5255 1.66795 5.78171C1.39282 5.90982 1.18088 6.01232 1.03659 6.08337C0.964438 6.1189 0.909195 6.14657 0.871417 6.16565C0.852528 6.1752 0.838004 6.18259 0.827915 6.18775L0.816118 6.1938L0.811666 6.19609C0.81131 6.19628 0.811024 6.19642 1.18271 6.91949ZM2.40417 7.23276C2.74948 7.70075 3.25437 8.3634 3.91051 9.16844C5.26816 10.8342 7.27075 13.1063 9.84462 15.5241C15.0004 20.3674 22.4048 25.754 31.4715 28.0662L31.4732 28.0666L31.475 28.0671C34.6587 28.8942 37.8138 29.472 40.8504 29.86C39.2251 24.3345 46.8614 23.555 50.6529 22.3151C56.9251 20.2599 63.1248 22.0431 67.4165 23.2039C67.3752 21.9541 66.8492 20.5069 65.7928 18.9219C64.5231 17.0169 62.5374 14.9921 59.9207 13.0028C54.6902 9.02636 47.0366 5.26672 37.8765 2.92226C28.8093 0.601543 19.7352 1.76944 12.8955 3.53908C9.48108 4.42252 6.63793 5.45219 4.6506 6.26C3.69032 6.65034 2.93078 6.9885 2.40417 7.23276ZM1.18271 6.91949L0.811024 6.19643L0 6.61613L0.510782 7.37487L1.18271 6.91949Z" fill="#4A6FDA"/>
<path fill-rule="evenodd" clip-rule="evenodd" d="M30.5573 13.5411L18.579 1.55233L19.159 0.986328L31.5616 13.3997L31.4321 13.6573L31.0671 13.4781C31.4321 13.6573 31.4319 13.6577 31.4317 13.6581L31.4313 13.659L31.43 13.6615C31.429 13.6634 31.4278 13.6658 31.4263 13.6687C31.4232 13.6746 31.419 13.6825 31.4137 13.6923C31.4031 13.712 31.3878 13.7396 31.3678 13.7742C31.3276 13.8434 31.268 13.9411 31.1869 14.0616C31.0248 14.3024 30.7767 14.6345 30.4265 15.0117C29.7255 15.7666 28.6162 16.7016 26.9719 17.4465C23.6748 18.9404 18.2943 19.6417 9.86301 16.7249L10.1323 15.9646C18.4201 18.8318 23.5743 18.0997 26.6322 16.7143C28.1654 16.0196 29.1886 15.1533 29.8259 14.467C30.1447 14.1236 30.3671 13.8251 30.5082 13.6154C30.5258 13.5892 30.5422 13.5644 30.5573 13.5411Z" fill="#4A6FDA"/>
<path fill-rule="evenodd" clip-rule="evenodd" d="M24.2891 26.6301C24.2891 26.6301 24.2892 26.63 23.98 26.3749C23.6708 26.1198 23.671 26.1196 23.6712 26.1193L23.672 26.1184L23.6746 26.1156C23.6767 26.1132 23.6797 26.1098 23.6836 26.1054C23.6914 26.0967 23.7028 26.0841 23.7176 26.0677C23.7473 26.0351 23.7911 25.9876 23.8489 25.9263C23.9645 25.8038 24.136 25.6266 24.3629 25.404C24.8166 24.959 25.4917 24.3327 26.3828 23.6017C28.1647 22.14 30.8124 20.2579 34.2822 18.5696C41.2269 15.1903 51.457 12.5918 64.6027 15.6808L64.4113 16.4456C51.4797 13.4069 41.4462 15.9642 34.6468 19.2728C31.2445 20.9283 28.65 22.7731 26.9076 24.2023C26.0366 24.9167 25.3792 25.5269 24.9408 25.957C24.7216 26.172 24.5572 26.3419 24.4484 26.4573C24.394 26.5149 24.3534 26.559 24.3269 26.5881C24.3136 26.6027 24.3038 26.6136 24.2975 26.6206L24.2907 26.6283L24.2893 26.6299L24.2891 26.6301Z" fill="#4A6FDA"/>
<path fill-rule="evenodd" clip-rule="evenodd" d="M38.2756 23.6712C38.2757 23.6712 38.2757 23.6711 38.1241 23.5225C37.9724 23.3739 37.9725 23.3738 37.9726 23.3736L37.9729 23.3732L37.9739 23.372L37.9771 23.3678C37.9798 23.3642 37.9838 23.3591 37.9889 23.3526C37.9991 23.3395 38.0141 23.3207 38.0337 23.2965C38.0731 23.248 38.1313 23.1782 38.2081 23.0907C38.3617 22.9158 38.5898 22.6701 38.8906 22.3835C39.4922 21.8104 40.3855 21.0731 41.556 20.4117C43.8995 19.0875 47.3499 18.0706 51.7808 19.2797L51.6875 19.7226C47.3609 18.542 44.0063 19.5357 41.7341 20.8197C40.5967 21.4623 39.7296 22.1784 39.1476 22.7327C38.8567 23.0099 38.6373 23.2463 38.4913 23.4126C38.4183 23.4958 38.3637 23.5614 38.3277 23.6057C38.3097 23.6279 38.2963 23.6447 38.2876 23.6558C38.2833 23.6613 38.2801 23.6654 38.2782 23.668L38.2761 23.6707L38.2757 23.6712L38.2756 23.6712Z" fill="#4A6FDA"/>
<path d="M19.4816 1.97256H18.4731H16.8594C15.6156 2.28116 13.1279 2.91893 13.1279 3.00122C13.1279 3.10409 7.83314 4.80137 7.07675 4.80137C6.47164 4.80137 4.77396 5.52143 4.00076 5.88146L1.47945 6.34436V7.68162L3.09308 9.8418L4.9315 12.5753L10.2262 16.2785L11.3425 16.7671L13.1279 17.351L15.0411 17.7625L19.726 18.2254H22.3055L24.6251 17.7625L28.2053 15.9623L30.5753 13.6478L28.8609 12.002L26.8767 9.36982L23.4247 5.67119L19.4816 1.97256Z" fill="#4A6FDA"/>
<path fill-rule="evenodd" clip-rule="evenodd" d="M18.7593 1.97256H17.0156L16.9864 1.97963C16.3662 2.12952 15.4357 2.35943 14.6595 2.56203C14.2718 2.66323 13.9205 2.75818 13.6651 2.8332C13.5382 2.8705 13.4309 2.90405 13.3536 2.93175C13.3161 2.94517 13.2785 2.95975 13.2474 2.97489C13.2332 2.98182 13.2098 2.99389 13.1864 3.01132C13.1807 3.0156 13.1726 3.0219 13.1634 3.0303C13.1321 3.0443 13.0824 3.06432 13.0133 3.0902C12.872 3.14314 12.6666 3.21448 12.4146 3.29835C11.9114 3.46579 11.2312 3.68021 10.5269 3.89172C9.82239 4.10329 9.09602 4.31125 8.5 4.46608C8.2018 4.54355 7.93839 4.60715 7.72771 4.6512C7.50941 4.69685 7.36874 4.7168 7.30424 4.7168C7.11686 4.7168 6.86997 4.76895 6.61208 4.84063C6.3478 4.91408 6.04896 5.0148 5.74843 5.12521C5.16175 5.34074 4.55635 5.59773 4.16577 5.77408L1.47945 6.25455V7.84462L3.13532 10.0041L3.13765 10.0072L5.42007 13.0816L10.7383 16.7052L11.9756 17.3712L13.2566 17.7785L14.838 18.2347L19.6659 18.7397L22.515 18.2342L24.8596 17.7783L28.4895 16.0003L31.0685 13.5467L29.1664 11.7679L26.2535 9.17282L24.096 7.17859L24.0953 7.17793L21.4896 4.78791L18.7593 1.97256ZM18.5458 2.47152L21.1382 5.14464L23.754 7.54391L23.7547 7.54456L25.9148 9.54128L28.8267 12.1353L30.3392 13.5498L28.1981 15.5868L24.6976 17.3014L22.4227 17.7437L19.6477 18.2361L14.935 17.7431L13.4032 17.3012L12.1735 16.9102L11.0006 16.2789L5.77388 12.7177L3.53824 9.70635L1.98159 7.6762V6.67171L4.31675 6.25405L4.34547 6.24102C4.72622 6.06831 5.33548 5.80887 5.92256 5.5932C6.21622 5.48531 6.50111 5.38957 6.74734 5.32114C6.99995 5.25093 7.19034 5.21575 7.30424 5.21575C7.42804 5.21575 7.61691 5.18425 7.83111 5.13946C8.05293 5.09308 8.32501 5.02726 8.62701 4.94881C9.23142 4.7918 9.96438 4.58189 10.6721 4.36934C11.3801 4.15675 12.0651 3.94082 12.574 3.77147C12.8281 3.68694 13.0404 3.61328 13.1905 3.55706C13.2647 3.52924 13.3279 3.50412 13.3745 3.48308C13.3966 3.47308 13.4222 3.46075 13.4452 3.44689C13.455 3.44095 13.4731 3.42959 13.4919 3.41303C13.5002 3.40978 13.5108 3.4058 13.5239 3.4011C13.587 3.37852 13.6828 3.34829 13.8075 3.31168C14.0553 3.23889 14.4007 3.14548 14.7871 3.04461C15.5471 2.84621 16.4576 2.62109 17.0758 2.47152H18.5458Z" fill="#4A6FDA"/>
<path fill-rule="evenodd" clip-rule="evenodd" d="M45.9055 24.5325C52.4454 22.4197 58.6907 22.3839 62.5691 23.7049L45.9055 24.5325ZM62.5691 23.7049C64.9937 24.5425 66.256 25.8185 66.4086 27.2158L66.4089 27.2179C66.5208 28.2183 66.2336 29.4407 65.503 30.8069C64.7761 32.1662 63.6367 33.6166 62.1309 35.0464C59.1196 37.9058 54.7072 40.6216 49.4254 42.3252C44.2588 43.9916 39.0606 43.1952 35.108 41.9477C33.1377 41.3259 31.4953 40.5977 30.347 40.0256C29.8604 39.7832 29.4635 39.5693 29.169 39.4042C29.222 39.2932 29.2822 39.1692 29.3496 39.0333C29.6661 38.3958 30.1406 37.5009 30.7688 36.4792C32.0298 34.4287 33.8895 31.902 36.3074 29.9137L36.3079 29.9133C38.9805 27.7125 42.2366 25.7209 45.9053 24.5326M28.1318 39.7284C27.3821 39.4219 27.3822 39.4217 27.3823 39.4215L27.3831 39.4195L27.3851 39.4148C27.3862 39.4123 27.3875 39.4091 27.3891 39.4054L27.392 39.3985C27.3979 39.3847 27.4064 39.365 27.4174 39.3396C27.4395 39.2888 27.4719 39.2153 27.5146 39.1212C27.5999 38.9331 27.7263 38.6624 27.8934 38.3258C28.2274 37.653 28.7249 36.7148 29.3828 35.6451C30.6939 33.5129 32.6626 30.8239 35.2699 28.6798C38.0642 26.3787 41.4973 24.2715 45.4007 23.0072L45.4013 23.007C52.1711 20.8198 58.794 20.721 63.099 22.188L63.1006 22.1885L63.1021 22.1891C65.7356 23.0984 67.7665 24.7114 68.0216 27.0426C68.1808 28.4692 67.7592 30.0201 66.9371 31.5575C66.1111 33.1022 64.8534 34.686 63.2544 36.2044C60.056 39.2413 55.4276 42.0774 49.9283 43.8511C44.3139 45.662 38.7396 44.7785 34.6149 43.4768C32.5466 42.824 30.8242 42.0604 29.6173 41.4591C29.0134 41.1583 28.5372 40.8974 28.2098 40.7104C28.046 40.6168 27.9194 40.5417 27.8325 40.4892C27.7891 40.463 27.7555 40.4424 27.7323 40.4279C27.7206 40.4207 27.7116 40.4151 27.7051 40.411L27.6973 40.4061L27.695 40.4046L27.6941 40.4041C27.6938 40.4039 27.6935 40.4037 28.1318 39.7284ZM28.1318 39.7284L27.6935 40.4037L27.1233 40.0415L27.3821 39.4219L28.1318 39.7284Z" fill="#4A6FDA"/>
<path fill-rule="evenodd" clip-rule="evenodd" d="M43.041 25.1507C43.0408 25.1505 43.0406 25.1503 42.7259 25.4142C42.4111 25.6782 42.411 25.6781 42.411 25.678L42.4116 25.6787L42.415 25.6826C42.4183 25.6863 42.4235 25.6923 42.4305 25.7004C42.4446 25.7167 42.466 25.7418 42.494 25.7754C42.5501 25.8426 42.6324 25.9438 42.7351 26.0767C42.9404 26.3426 43.2265 26.7347 43.545 27.235C44.1828 28.2366 44.9462 29.6649 45.4544 31.3746C46.4664 34.7792 46.4724 39.3063 42.4114 43.8551L43.0404 44.3835C47.3215 39.5882 47.3275 34.7628 46.254 31.1509C45.7194 29.3524 44.9187 27.8563 44.253 26.8108C43.9197 26.2874 43.6193 25.8753 43.401 25.5927C43.2918 25.4514 43.2031 25.3423 43.141 25.2678C43.11 25.2306 43.0856 25.202 43.0686 25.1823C43.0601 25.1725 43.0535 25.1648 43.0488 25.1595L43.0432 25.1532L43.0415 25.1513L43.041 25.1507Z" fill="#4A6FDA"/>
<path fill-rule="evenodd" clip-rule="evenodd" d="M48.1723 28.1096C48.1722 28.1094 48.1722 28.1093 48.0039 28.2183C47.8357 28.3274 47.8356 28.3273 47.8356 28.3273L47.8356 28.3273L47.8359 28.3278L47.8375 28.3302C47.839 28.3325 47.8412 28.3361 47.8443 28.341C47.8505 28.3509 47.8599 28.366 47.8721 28.3861C47.8966 28.4265 47.9325 28.4871 47.9771 28.5666C48.0665 28.7256 48.1909 28.9601 48.3295 29.2593C48.6067 29.8579 48.9395 30.7133 49.1612 31.739C49.6044 33.789 49.6033 36.5118 47.8358 39.2337L48.1721 39.452C50.0132 36.6167 50.0121 33.7772 49.5531 31.6543C49.3238 30.5935 48.9799 29.7098 48.6933 29.0908C48.5499 28.7812 48.4206 28.5374 48.3267 28.3703C48.2798 28.2867 48.2416 28.2222 48.215 28.1783C48.2017 28.1563 48.1912 28.1395 48.184 28.1279C48.1804 28.1222 48.1775 28.1177 48.1755 28.1146L48.1732 28.111L48.1725 28.1099L48.1723 28.1096Z" fill="#4A6FDA"/>
<path fill-rule="evenodd" clip-rule="evenodd" d="M100.067 24.5325C93.5272 22.4197 87.2819 22.3839 83.4035 23.7049L100.067 24.5325ZM83.4035 23.7049C80.9789 24.5425 79.7166 25.8185 79.564 27.2158L79.5637 27.2179C79.4518 28.2183 79.739 29.4407 80.4696 30.8069C81.1965 32.1662 82.3359 33.6166 83.8417 35.0464C86.853 37.9058 91.2654 40.6216 96.5472 42.3252C101.714 43.9916 106.912 43.1952 110.865 41.9477C112.835 41.3259 114.477 40.5977 115.626 40.0256C116.112 39.7832 116.509 39.5693 116.804 39.4042C116.751 39.2932 116.69 39.1692 116.623 39.0333C116.306 38.3958 115.832 37.5009 115.204 36.4792C113.943 34.4287 112.083 31.902 109.665 29.9137L109.665 29.9133C106.992 27.7125 103.736 25.7209 100.067 24.5326M117.841 39.7284C118.59 39.4219 118.59 39.4217 118.59 39.4215L118.589 39.4195L118.587 39.4148C118.586 39.4123 118.585 39.4091 118.583 39.4054L118.581 39.3985C118.575 39.3847 118.566 39.365 118.555 39.3396C118.533 39.2888 118.501 39.2153 118.458 39.1212C118.373 38.9331 118.246 38.6624 118.079 38.3258C117.745 37.653 117.248 36.7148 116.59 35.6451C115.279 33.5129 113.31 30.8239 110.703 28.6798C107.908 26.3787 104.475 24.2715 100.572 23.0072L100.571 23.007C93.8015 20.8198 87.1786 20.721 82.8736 22.188L82.872 22.1885L82.8705 22.1891C80.237 23.0984 78.2061 24.7114 77.951 27.0426C77.7918 28.4692 78.2134 30.0201 79.0355 31.5575C79.8615 33.1022 81.1192 34.686 82.7182 36.2044C85.9166 39.2413 90.545 42.0774 96.0443 43.8511C101.659 45.662 107.233 44.7785 111.358 43.4768C113.426 42.824 115.148 42.0604 116.355 41.4591C116.959 41.1583 117.435 40.8974 117.763 40.7104C117.927 40.6168 118.053 40.5417 118.14 40.4892C118.184 40.463 118.217 40.4424 118.24 40.4279C118.252 40.4207 118.261 40.4151 118.268 40.411L118.275 40.4061L118.278 40.4046L118.278 40.4041C118.279 40.4039 118.279 40.4037 117.841 39.7284ZM117.841 39.7284L118.279 40.4037L118.849 40.0415L118.59 39.4219L117.841 39.7284Z" fill="#4A6FDA"/>
<path fill-rule="evenodd" clip-rule="evenodd" d="M102.932 25.1507C102.932 25.1505 102.932 25.1503 103.247 25.4142C103.561 25.6782 103.562 25.6781 103.562 25.678L103.561 25.6787L103.558 25.6826C103.554 25.6863 103.549 25.6923 103.542 25.7004C103.528 25.7167 103.507 25.7418 103.479 25.7754C103.423 25.8426 103.34 25.9438 103.238 26.0767C103.032 26.3426 102.746 26.7347 102.428 27.235C101.79 28.2366 101.026 29.6649 100.518 31.3746C99.5062 34.7792 99.5002 39.3063 103.561 43.8551L102.932 44.3835C98.6511 39.5882 98.6451 34.7628 99.7187 31.1509C100.253 29.3524 101.054 27.8563 101.72 26.8108C102.053 26.2874 102.353 25.8753 102.572 25.5927C102.681 25.4514 102.77 25.3423 102.832 25.2678C102.863 25.2306 102.887 25.202 102.904 25.1823C102.913 25.1725 102.919 25.1648 102.924 25.1595L102.929 25.1532L102.931 25.1513L102.932 25.1507Z" fill="#4A6FDA"/>
<path fill-rule="evenodd" clip-rule="evenodd" d="M97.8003 28.1096C97.8004 28.1094 97.8004 28.1093 97.9687 28.2183C98.1369 28.3274 98.137 28.3273 98.137 28.3273L98.137 28.3273L98.1367 28.3278L98.1351 28.3302C98.1337 28.3325 98.1314 28.3361 98.1283 28.341C98.1221 28.3509 98.1127 28.366 98.1005 28.3861C98.076 28.4265 98.0401 28.4871 97.9955 28.5666C97.9061 28.7256 97.7817 28.9601 97.6431 29.2593C97.3659 29.8579 97.0331 30.7133 96.8114 31.739C96.3682 33.789 96.3693 36.5118 98.1368 39.2337L97.8005 39.452C95.9594 36.6167 95.9605 33.7772 96.4195 31.6543C96.6488 30.5935 96.9927 29.7098 97.2793 29.0908C97.4227 28.7812 97.552 28.5374 97.6459 28.3703C97.6928 28.2867 97.731 28.2222 97.7576 28.1783C97.7709 28.1563 97.7814 28.1395 97.7886 28.1279C97.7923 28.1222 97.7951 28.1177 97.7971 28.1146L97.7994 28.111L97.8001 28.1099L97.8003 28.1096Z" fill="#4A6FDA"/>
<path d="M79.3973 8.87674C79.3973 12.9696 72 16.274 72 16.274C72 16.274 64.6027 12.9696 64.6027 8.87674C64.6027 4.78392 67.9072 1.47948 72 1.47948C76.0928 1.47948 79.3973 4.8007 79.3973 8.87674Z" fill="url(#paint0_linear)"/>
<path d="M78.9041 62.137C78.9041 77.1113 72 89.2603 72 89.2603C72 89.2603 65.0959 77.1113 65.0959 62.137C65.0959 47.1627 68.1846 35.0137 72 35.0137C75.8154 35.0137 78.9041 47.1627 78.9041 62.137Z" fill="url(#paint1_linear)"/>
<path d="M78.9041 56.7123C78.9041 65.9723 72 73.4794 72 73.4794C72 73.4794 65.0959 65.9723 65.0959 56.7123C65.0959 47.4524 68.1937 39.9452 72 39.9452C75.8228 39.9452 78.9041 47.4524 78.9041 56.7123Z" fill="url(#paint2_linear)"/>
<path d="M77.9178 48.3288C77.9178 55.675 72.2466 61.6439 72.2466 61.6439C72.2466 61.6439 66.5753 55.692 66.5753 48.3288C66.5753 40.9655 69.1107 35.0137 72.2466 35.0137C75.3824 35.0137 77.9178 40.9826 77.9178 48.3288Z" fill="url(#paint3_linear)"/>
<path d="M78.411 36.7397C78.411 44.7737 72.2466 51.2877 72.2466 51.2877C72.2466 51.2877 66.0822 44.7904 66.0822 36.7397C66.0822 28.6891 68.8438 22.1918 72.2466 22.1918C75.6493 22.1918 78.411 28.7058 78.411 36.7397Z" fill="url(#paint4_linear)"/>
<path d="M81.863 25.4048C81.863 32.6097 72.0083 38.4658 72.0083 38.4658C72.0083 38.4658 62.137 32.6097 62.137 25.4048C62.137 18.1999 67.8014 11.982 71.9917 12.3438C76.1986 12.7057 81.863 18.1834 81.863 25.4048Z" fill="url(#paint5_linear)"/>
<path d="M43.5375 43.8904C49.5355 37.6866 46.0367 29.1411 43.5375 25.6438C35.5069 27.6164 29.8356 35.7534 29.0959 39.8356C31.1489 42.9983 39.579 43.8566 43.5375 43.8904Z" fill="#4A6FDA"/>
<path fill-rule="evenodd" clip-rule="evenodd" d="M43.3878 25.1507L43.4979 25.3046C44.7637 27.074 46.2794 30.1131 46.7222 33.5C47.166 36.895 46.532 40.6536 43.474 43.8131L43.3992 43.8904L43.292 43.8895C41.3049 43.8725 38.1974 43.6492 35.3246 43.0328C33.8883 42.7246 32.5021 42.3164 31.3412 41.782C30.1847 41.2496 29.2252 40.58 28.6754 39.7341L28.6027 39.6222L28.6538 39.4988C29.3926 37.7131 31.0015 34.8706 33.4359 32.1126C35.8707 29.3538 39.1425 26.667 43.2101 25.2141L43.3878 25.1507ZM29.1701 39.5669C29.6572 40.2497 30.4863 40.833 31.5501 41.3226C32.6657 41.8362 34.0132 42.2349 35.4293 42.5388C38.2101 43.1354 41.2228 43.3595 43.1886 43.3833C46.0509 40.3762 46.6496 36.8184 46.2244 33.5659C45.8072 30.3746 44.4043 27.4908 43.1997 25.7548C39.3169 27.1854 36.1725 29.7727 33.8113 32.448C31.4707 35.0998 29.9103 37.8261 29.1701 39.5669Z" fill="#4A6FDA"/>
<path d="M102.527 43.8904C96.3625 37.6866 99.9585 29.1411 102.527 25.6438C110.802 28.5227 115.87 36.3045 117.37 39.8356C115.26 42.9983 106.596 43.8566 102.527 43.8904Z" fill="#4A6FDA"/>
<path fill-rule="evenodd" clip-rule="evenodd" d="M102.585 25.1507L102.475 25.3046C101.209 27.074 99.6932 30.1131 99.2504 33.5C98.8066 36.895 99.4406 40.6536 102.499 43.8131L102.573 43.8904L102.681 43.8895C104.668 43.8725 107.775 43.6492 110.648 43.0328C112.084 42.7246 113.47 42.3164 114.631 41.782C115.788 41.2496 116.747 40.58 117.297 39.7341L117.37 39.6222L117.319 39.4988C116.58 37.7131 114.971 34.8706 112.537 32.1126C110.102 29.3538 106.83 26.667 102.762 25.2141L102.585 25.1507ZM116.802 39.5669C116.315 40.2497 115.486 40.833 114.423 41.3226C113.307 41.8362 111.959 42.2349 110.543 42.5388C107.763 43.1354 104.75 43.3595 102.784 43.3833C99.9217 40.3762 99.323 36.8184 99.7482 33.5659C100.165 30.3746 101.568 27.4908 102.773 25.7548C106.656 27.1854 109.8 29.7727 112.161 32.448C114.502 35.0998 116.062 37.8261 116.802 39.5669Z" fill="#4A6FDA"/>
<defs>
<linearGradient id="paint0_linear" x1="72.0559" y1="16.2926" x2="72.0559" y2="1.488" gradientUnits="userSpaceOnUse">
<stop stop-color="#7093F9"/>
<stop offset="1" stop-color="#4A6FDA"/>
</linearGradient>
<linearGradient id="paint1_linear" x1="72.0522" y1="89.3286" x2="72.0522" y2="35.045" gradientUnits="userSpaceOnUse">
<stop stop-color="#7093F9"/>
<stop offset="1" stop-color="#4A6FDA"/>
</linearGradient>
<linearGradient id="paint2_linear" x1="72.0522" y1="73.5216" x2="72.0522" y2="39.9645" gradientUnits="userSpaceOnUse">
<stop stop-color="#7093F9"/>
<stop offset="1" stop-color="#4A6FDA"/>
</linearGradient>
<linearGradient id="paint3_linear" x1="72.2894" y1="61.6774" x2="72.2894" y2="35.0291" gradientUnits="userSpaceOnUse">
<stop stop-color="#7093F9"/>
<stop offset="1" stop-color="#4A6FDA"/>
</linearGradient>
<linearGradient id="paint4_linear" x1="72.2932" y1="51.3243" x2="72.2932" y2="22.2085" gradientUnits="userSpaceOnUse">
<stop stop-color="#7093F9"/>
<stop offset="1" stop-color="#4A6FDA"/>
</linearGradient>
<linearGradient id="paint5_linear" x1="72.0745" y1="38.4987" x2="72.0745" y2="12.3438" gradientUnits="userSpaceOnUse">
<stop stop-color="#7093F9"/>
<stop offset="1" stop-color="#4A6FDA"/>
</linearGradient>
</defs>
</svg>
