<svg width="32" height="32" viewBox="0 0 32 32" fill="none" xmlns="http://www.w3.org/2000/svg">
<path d="M25.2056 2H17.5225C17.2837 1.99983 17.0545 2.0942 16.885 2.2625L1.525 17.6188C1.18876 17.9566 1 18.4139 1 18.8906C1 19.3673 1.18876 19.8246 1.525 20.1625L8.8375 27.475C9.1755 27.8113 9.6329 28.0001 10.1097 28.0001C10.5865 28.0001 11.0439 27.8113 11.3819 27.475L26.7375 12.125C26.9058 11.9555 27.0002 11.7263 27 11.4875V3.8C27.0012 3.56377 26.9556 3.32965 26.8659 3.11111C26.7762 2.89257 26.6441 2.69393 26.4774 2.52663C26.3106 2.35933 26.1124 2.22667 25.8941 2.13629C25.6758 2.0459 25.4419 1.99959 25.2056 2V2Z" stroke="#4A6FDA" stroke-width="1.5" stroke-linecap="round" stroke-linejoin="round"/>
<path d="M22 9C21.6044 9 21.2178 8.8827 20.8889 8.66294C20.56 8.44318 20.3036 8.13082 20.1522 7.76537C20.0009 7.39992 19.9613 6.99778 20.0384 6.60982C20.1156 6.22186 20.3061 5.86549 20.5858 5.58579C20.8655 5.30608 21.2219 5.1156 21.6098 5.03843C21.9978 4.96126 22.3999 5.00087 22.7654 5.15224C23.1308 5.30362 23.4432 5.55996 23.6629 5.88886C23.8827 6.21776 24 6.60444 24 7C24 7.53043 23.7893 8.03914 23.4142 8.41421C23.0391 8.78929 22.5304 9 22 9Z" fill="#4A6FDA"/>
<path d="M14.375 30L30.75 13.625C30.8314 13.5429 30.8955 13.4452 30.9384 13.3379C30.9814 13.2305 31.0023 13.1156 31 13V5" stroke="#4A6FDA" stroke-width="1.5" stroke-linecap="round" stroke-linejoin="round"/>
</svg>
