<svg width="35" height="35" viewBox="0 0 35 35" fill="none" xmlns="http://www.w3.org/2000/svg">
<g clip-path="url(#clip0)">
<path d="M27.5687 2.1875H19.1652C18.904 2.18731 18.6533 2.29053 18.468 2.47461L1.66797 19.2705C1.30021 19.6401 1.09375 20.1402 1.09375 20.6616C1.09375 21.183 1.30021 21.6832 1.66797 22.0527L9.66602 30.0508C10.0357 30.4186 10.536 30.6251 11.0575 30.6251C11.579 30.6251 12.0792 30.4186 12.4489 30.0508L29.2441 13.2617C29.4282 13.0764 29.5314 12.8257 29.5313 12.5645V4.15625C29.5325 3.89788 29.4827 3.6418 29.3846 3.40278C29.2864 3.16375 29.142 2.94649 28.9596 2.7635C28.7772 2.58051 28.5604 2.43542 28.3217 2.33656C28.083 2.23771 27.827 2.18705 27.5687 2.1875V2.1875Z" stroke="#4A6FDA" stroke-width="3" stroke-linecap="round" stroke-linejoin="round"/>
<path d="M24.0625 9.84375C23.6299 9.84375 23.2069 9.71546 22.8472 9.47509C22.4875 9.23473 22.2071 8.89308 22.0415 8.49337C21.8759 8.09366 21.8326 7.65382 21.917 7.22949C22.0014 6.80516 22.2098 6.41538 22.5157 6.10945C22.8216 5.80353 23.2114 5.59519 23.6357 5.51078C24.0601 5.42638 24.4999 5.4697 24.8996 5.63526C25.2993 5.80083 25.641 6.08121 25.8813 6.44094C26.1217 6.80067 26.25 7.2236 26.25 7.65625C26.25 8.23641 26.0195 8.79281 25.6093 9.20305C25.1991 9.61328 24.6427 9.84375 24.0625 9.84375Z" fill="#4A6FDA"/>
<path d="M15.7227 32.8125L33.6328 14.9023C33.7219 14.8125 33.7919 14.7057 33.8389 14.5883C33.8859 14.4709 33.9088 14.3452 33.9062 14.2188V5.46875" stroke="#4A6FDA" stroke-width="3" stroke-linecap="round" stroke-linejoin="round"/>
</g>
<defs>
<clipPath id="clip0">
<rect width="35" height="35" fill="white"/>
</clipPath>
</defs>
</svg>
