<svg width="22" height="22" viewBox="0 0 22 22" fill="none" xmlns="http://www.w3.org/2000/svg">
<path d="M18.3078 3.7352C16.3839 1.8113 13.7745 0.730469 11.0537 0.730469C8.33291 0.730469 5.72354 1.8113 3.79964 3.7352C1.87574 5.6591 0.794907 8.26847 0.794907 10.9893C0.794907 13.7101 1.87574 16.3194 3.79964 18.2433C5.72354 20.1672 8.33291 21.2481 11.0537 21.2481C13.7745 21.2481 16.3839 20.1672 18.3078 18.2433C20.2317 16.3194 21.3125 13.7101 21.3125 10.9893C21.3125 8.26847 20.2317 5.6591 18.3078 3.7352ZM11.0537 19.8731C6.15527 19.8731 2.16992 15.8878 2.16992 10.9893C2.16992 6.09075 6.15519 2.10548 11.0537 2.10548C15.9522 2.10548 19.9375 6.09075 19.9375 10.9893C19.9375 15.8878 15.9522 19.8731 11.0537 19.8731Z" fill="white"/>
<path d="M9.50769 13.1402L6.35323 9.98576L5.38098 10.958L9.50769 15.0847L16.705 7.88751L15.7327 6.91525L9.50769 13.1402Z" fill="white"/>
</svg>
