<svg width="32" height="32" viewBox="0 0 32 32" fill="none" xmlns="http://www.w3.org/2000/svg">
<path d="M27 2C26.1343 1.99963 25.2918 2.28026 24.5992 2.79973C23.9066 3.31919 23.4014 4.04941 23.1594 4.88064C22.9174 5.71187 22.9517 6.59919 23.2572 7.40924C23.5627 8.21928 24.1229 8.90829 24.8535 9.37269L22.2434 18.5081C22.1624 18.503 22.0812 18.5003 22 18.5C21.1396 18.4991 20.302 18.7771 19.6129 19.2924L14.7908 15.2739C15.0191 14.5966 15.0617 13.8705 14.9143 13.1711C14.7668 12.4717 14.4346 11.8246 13.9522 11.2971C13.4699 10.7696 12.855 10.381 12.1716 10.1717C11.4881 9.9624 10.7611 9.94007 10.0661 10.107C9.37105 10.274 8.73347 10.6241 8.21966 11.121C7.70584 11.6179 7.33456 12.2434 7.14443 12.9324C6.95431 13.6214 6.95228 14.3488 7.13857 15.0389C7.32486 15.729 7.69266 16.3565 8.2037 16.8563L5.37295 22.518C5.24898 22.5062 5.12454 22.5002 5.00001 22.5C4.04174 22.4988 3.11479 22.8412 2.38742 23.465C1.66004 24.0889 1.18046 24.9529 1.03571 25.9001C0.890963 26.8474 1.09065 27.8152 1.59853 28.6278C2.1064 29.4404 2.8888 30.044 3.80371 30.329C4.71861 30.614 5.70538 30.5615 6.5849 30.1811C7.46442 29.8007 8.17839 29.1175 8.59721 28.2556C9.01604 27.3937 9.11195 26.4102 8.86755 25.4836C8.62316 24.5571 8.05464 23.7488 7.2652 23.2056L9.9402 17.8563C10.59 18.0356 11.2746 18.0473 11.9302 17.8904C12.5857 17.7335 13.1908 17.4131 13.6891 16.9591L18.3578 20.8498C18.0408 21.5485 17.9314 22.3236 18.0426 23.0827C18.1538 23.8418 18.4811 24.5529 18.9852 25.1313C19.4894 25.7096 20.1493 26.1307 20.8861 26.3444C21.623 26.5581 22.4058 26.5554 23.1411 26.3366C23.8765 26.1178 24.5334 25.6921 25.0336 25.1103C25.5337 24.5285 25.856 23.8151 25.962 23.0553C26.068 22.2954 25.9532 21.5211 25.6313 20.8246C25.3094 20.1282 24.7941 19.539 24.1466 19.1273L26.7566 9.99188C26.8372 9.99675 26.9182 10 27 10C28.0609 10 29.0783 9.57857 29.8284 8.82843C30.5786 8.07828 31 7.06087 31 6C31 4.93913 30.5786 3.92172 29.8284 3.17157C29.0783 2.42143 28.0609 2 27 2V2ZM5.00001 28.5C4.60445 28.5 4.21777 28.3827 3.88887 28.1629C3.55997 27.9432 3.30363 27.6308 3.15225 27.2654C3.00088 26.8999 2.96127 26.4978 3.03844 26.1098C3.11561 25.7219 3.30609 25.3655 3.5858 25.0858C3.8655 24.8061 4.22187 24.6156 4.60983 24.5384C4.99779 24.4613 5.39993 24.5009 5.76538 24.6522C6.13083 24.8036 6.44319 25.06 6.66295 25.3889C6.88271 25.7178 7.00001 26.1044 7.00001 26.5C6.99942 27.0303 6.78851 27.5386 6.41357 27.9136C6.03862 28.2885 5.53026 28.4994 5.00001 28.5V28.5ZM11 16C10.6044 16 10.2178 15.8827 9.88887 15.6629C9.55997 15.4432 9.30363 15.1308 9.15225 14.7654C9.00088 14.3999 8.96127 13.9978 9.03844 13.6098C9.11561 13.2219 9.30609 12.8655 9.5858 12.5858C9.8655 12.3061 10.2219 12.1156 10.6098 12.0384C10.9978 11.9613 11.3999 12.0009 11.7654 12.1522C12.1308 12.3036 12.4432 12.56 12.6629 12.8889C12.8827 13.2178 13 13.6044 13 14C12.9994 14.5303 12.7885 15.0386 12.4136 15.4136C12.0386 15.7885 11.5303 15.9994 11 16ZM22 24.5C21.6044 24.5 21.2178 24.3827 20.8889 24.1629C20.56 23.9432 20.3036 23.6308 20.1523 23.2654C20.0009 22.8999 19.9613 22.4978 20.0384 22.1098C20.1156 21.7219 20.3061 21.3655 20.5858 21.0858C20.8655 20.8061 21.2219 20.6156 21.6098 20.5384C21.9978 20.4613 22.3999 20.5009 22.7654 20.6522C23.1308 20.8036 23.4432 21.06 23.6629 21.3889C23.8827 21.7178 24 22.1044 24 22.5C23.9994 23.0303 23.7885 23.5386 23.4136 23.9136C23.0386 24.2885 22.5303 24.4994 22 24.5V24.5ZM27 8C26.6044 8 26.2178 7.8827 25.8889 7.66294C25.56 7.44318 25.3036 7.13082 25.1523 6.76537C25.0009 6.39992 24.9613 5.99778 25.0384 5.60982C25.1156 5.22186 25.3061 4.86549 25.5858 4.58579C25.8655 4.30608 26.2219 4.1156 26.6098 4.03843C26.9978 3.96126 27.3999 4.00087 27.7654 4.15224C28.1308 4.30362 28.4432 4.55996 28.6629 4.88886C28.8827 5.21776 29 5.60444 29 6C28.9994 6.53025 28.7885 7.03861 28.4136 7.41356C28.0386 7.7885 27.5303 7.99941 27 8Z" fill="#4A6FDA"/>
</svg>
