<svg width="30" height="34" viewBox="0 0 30 34" fill="none" xmlns="http://www.w3.org/2000/svg">
<path d="M24.4629 17.4217C24.4807 16.1404 24.8472 14.8841 25.5284 13.7697C26.2095 12.6553 27.1832 11.7189 28.3588 11.0478C27.6119 10.0574 26.6267 9.24237 25.4813 8.66739C24.336 8.09241 23.062 7.77335 21.7606 7.73554C18.9845 7.46496 16.2931 9.27807 14.8785 9.27807C13.4364 9.27807 11.2584 7.7624 8.91291 7.80721C7.39581 7.85273 5.91728 8.26238 4.62138 8.99625C3.32547 9.73012 2.25638 10.7632 1.51829 11.9948C-1.679 17.135 0.705886 24.6894 3.76862 28.8443C5.30097 30.8789 7.09185 33.1515 9.43517 33.0709C11.7283 32.9826 12.5847 31.7132 15.3526 31.7132C18.0949 31.7132 18.8984 33.0709 21.2893 33.0197C23.7499 32.9826 25.3001 30.9761 26.7787 28.9223C27.8797 27.4726 28.7269 25.8703 29.289 24.1749C27.8594 23.6135 26.6395 22.6737 25.7813 21.4728C24.9231 20.2719 24.4646 18.863 24.4629 17.4217Z" fill="white"/>
<path d="M19.9468 5.3585C21.2884 3.86298 21.9494 1.94074 21.7893 0C19.7396 0.199903 17.8463 1.10955 16.4865 2.54769C15.8217 3.25026 15.3125 4.06761 14.9881 4.95301C14.6637 5.83842 14.5304 6.77452 14.5958 7.7078C15.621 7.7176 16.6352 7.51126 17.5621 7.10433C18.489 6.69739 19.3044 6.10046 19.9468 5.3585Z" fill="white"/>
</svg>
