<svg width="25" height="25" viewBox="0 0 25 25" fill="none" xmlns="http://www.w3.org/2000/svg">
<path d="M6.824 14.5563C7.23344 14.5563 7.6261 14.3937 7.91562 14.1041C8.20513 13.8146 8.36778 13.422 8.36778 13.0125C8.36778 12.6031 8.20513 12.2104 7.91562 11.9209C7.6261 11.6314 7.23344 11.4688 6.824 11.4688C6.41456 11.4688 6.0219 11.6314 5.73238 11.9209C5.44287 12.2104 5.28022 12.6031 5.28022 13.0125C5.28022 13.422 5.44287 13.8146 5.73238 14.1041C6.0219 14.3937 6.41456 14.5563 6.824 14.5563ZM8.36881 18.1698C8.36881 18.5792 8.20617 18.9719 7.91665 19.2614C7.62713 19.5509 7.23447 19.7136 6.82503 19.7136C6.41559 19.7136 6.02293 19.5509 5.73341 19.2614C5.4439 18.9719 5.28125 18.5792 5.28125 18.1698C5.28125 17.7604 5.4439 17.3677 5.73341 17.0782C6.02293 16.7887 6.41559 16.626 6.82503 16.626C7.23447 16.626 7.62713 16.7887 7.91665 17.0782C8.20617 17.3677 8.36881 17.7604 8.36881 18.1698ZM12.5 14.5543C12.9092 14.5543 13.3016 14.3917 13.5909 14.1024C13.8802 13.8131 14.0428 13.4207 14.0428 13.0115C14.0428 12.6023 13.8802 12.2099 13.5909 11.9206C13.3016 11.6313 12.9092 11.4688 12.5 11.4688C12.0906 11.4688 11.6979 11.6314 11.4084 11.9209C11.1189 12.2104 10.9562 12.6031 10.9562 13.0125C10.9562 13.422 11.1189 13.8146 11.4084 14.1041C11.6979 14.3937 12.0906 14.5563 12.5 14.5563V14.5543ZM14.0448 18.1677C14.0448 18.5772 13.8822 18.9699 13.5927 19.2594C13.3031 19.5489 12.9105 19.7115 12.501 19.7115C12.0916 19.7115 11.6989 19.5489 11.4094 19.2594C11.1199 18.9699 10.9572 18.5772 10.9572 18.1677C10.9572 17.7583 11.1199 17.3656 11.4094 17.0761C11.6989 16.7866 12.0916 16.624 12.501 16.624C12.9105 16.624 13.3031 16.7866 13.5927 17.0761C13.8822 17.3656 14.0448 17.7583 14.0448 18.1677ZM18.1698 14.5543C18.5792 14.5543 18.9719 14.3916 19.2614 14.1021C19.5509 13.8126 19.7136 13.4199 19.7136 13.0105C19.7136 12.601 19.5509 12.2084 19.2614 11.9189C18.9719 11.6293 18.5792 11.4667 18.1698 11.4667C17.7604 11.4667 17.3677 11.6293 17.0782 11.9189C16.7887 12.2084 16.626 12.601 16.626 13.0105C16.626 13.4199 16.7887 13.8126 17.0782 14.1021C17.3677 14.3916 17.7604 14.5543 18.1698 14.5543ZM24.875 5.28125C24.875 3.91373 24.3318 2.60222 23.3648 1.63523C22.3978 0.668246 21.0863 0.125 19.7188 0.125H5.28125C3.91373 0.125 2.60222 0.668246 1.63523 1.63523C0.668246 2.60222 0.125 3.91373 0.125 5.28125V19.7188C0.125 21.0863 0.668246 22.3978 1.63523 23.3648C2.60222 24.3318 3.91373 24.875 5.28125 24.875H19.7188C21.0863 24.875 22.3978 24.3318 23.3648 23.3648C24.3318 22.3978 24.875 21.0863 24.875 19.7188V5.28125ZM2.1875 8.375H22.8125V19.7188C22.8125 20.5393 22.4866 21.3262 21.9064 21.9064C21.3262 22.4866 20.5393 22.8125 19.7188 22.8125H5.28125C4.46074 22.8125 3.67383 22.4866 3.09364 21.9064C2.51345 21.3262 2.1875 20.5393 2.1875 19.7188V8.375ZM5.28125 2.1875H19.7188C20.5393 2.1875 21.3262 2.51345 21.9064 3.09364C22.4866 3.67383 22.8125 4.46074 22.8125 5.28125V6.3125H2.1875V5.28125C2.1875 4.46074 2.51345 3.67383 3.09364 3.09364C3.67383 2.51345 4.46074 2.1875 5.28125 2.1875Z" fill="#4A6FDA"/>
</svg>
