<svg width="35" height="35" viewBox="0 0 35 35" fill="none" xmlns="http://www.w3.org/2000/svg">
<path d="M6.72 28.28L8.47 21.35L18.9 10.92L24.08 16.1L13.65 26.53L6.72 28.28ZM9.73 22.05L8.68 26.32L12.95 25.27L22.12 16.1L18.9 12.88L9.73 22.05Z" fill="#4A6FDA"/>
<path d="M12.46 26.11C12.04 24.36 10.64 22.96 8.89 22.54L9.24 21.21C11.48 21.77 13.23 23.52 13.79 25.76L12.46 26.11Z" fill="#4A6FDA"/>
<path d="M20.5086 13.5009L21.4984 14.4907L12.3914 23.6047L11.4016 22.6177L20.5086 13.5009Z" fill="#4A6FDA"/>
<path d="M7.7 27.3L9.73 26.81C9.52 26.04 8.96 25.48 8.19 25.27L7.7 27.3Z" fill="#4A6FDA"/>
<path d="M24.5 15.68L19.32 10.5L21.42 8.40002L21.77 8.47002C24.29 8.82002 26.25 10.78 26.6 13.3L26.67 13.65L24.5 15.68ZM21.28 10.5L24.5 13.72L25.13 13.09C24.78 11.48 23.52 10.22 21.91 9.87002L21.28 10.5Z" fill="#4A6FDA"/>
</svg>
