<svg width="18" height="22" viewBox="0 0 18 22" fill="none" xmlns="http://www.w3.org/2000/svg">
<path d="M13.5 4.20205C13.5 1.76005 12.36 0.00305176 10.493 0.00305176C9.467 0.00305176 9.115 0.605052 8.747 2.00305C8.672 2.29205 8.635 2.43305 8.596 2.57105C8.495 2.93005 8.319 3.54105 8.069 4.40205C8.06217 4.42505 8.05207 4.44694 8.039 4.46705L5.174 8.95305C4.49567 10.0138 3.49499 10.8291 2.319 11.2791L1.846 11.4601C1.24205 11.6914 0.738946 12.1282 0.42511 12.6937C0.111274 13.2591 0.00678314 13.9172 0.13 14.5521L0.534 16.6381C0.652225 17.2478 0.942715 17.811 1.37107 18.2608C1.79943 18.7106 2.34771 19.0282 2.951 19.1761L10.579 21.0461C11.7951 21.344 13.0796 21.1497 14.1532 20.5055C15.2268 19.8613 16.0027 18.8193 16.312 17.6061L17.727 12.0561C17.8492 11.5762 17.8601 11.0748 17.759 10.5901C17.6578 10.1054 17.4473 9.65027 17.1434 9.25936C16.8395 8.86845 16.4503 8.55214 16.0055 8.33459C15.5607 8.11703 15.0721 8.00397 14.577 8.00405H12.755C13.251 6.37105 13.501 5.11105 13.501 4.20205H13.5ZM1.6 14.2671C1.54385 13.9784 1.59128 13.6792 1.73394 13.422C1.8766 13.1648 2.10537 12.9662 2.38 12.8611L2.854 12.6811C4.32964 12.116 5.58514 11.0925 6.436 9.76105L9.303 5.27505C9.393 5.13405 9.462 4.98105 9.508 4.82005C9.76 3.95505 9.936 3.34105 10.038 2.97705C10.082 2.82405 10.123 2.66905 10.197 2.38505C10.387 1.66305 10.48 1.50305 10.492 1.50305C11.36 1.50305 11.999 2.48705 11.999 4.20305C11.999 5.08705 11.673 6.53805 11.015 8.51705C10.9775 8.62974 10.9672 8.74973 10.9851 8.86715C11.0031 8.98457 11.0486 9.09605 11.118 9.19243C11.1874 9.2888 11.2788 9.36731 11.3845 9.42148C11.4902 9.47566 11.6072 9.50396 11.726 9.50405H14.576C14.8426 9.50422 15.1055 9.56525 15.3449 9.68247C15.5843 9.7997 15.7938 9.97003 15.9574 10.1805C16.121 10.3909 16.2343 10.636 16.2888 10.8969C16.3434 11.1578 16.3376 11.4277 16.272 11.6861L14.857 17.2361C14.6452 18.0661 14.1142 18.779 13.3796 19.2196C12.6449 19.6603 11.766 19.793 10.934 19.5891L3.306 17.7191C2.98132 17.6394 2.68625 17.4684 2.45569 17.2264C2.22513 16.9843 2.06873 16.6812 2.005 16.3531L1.6 14.2671Z" fill="#4A6FDA"/>
</svg>
