<svg width="27" height="21" viewBox="0 0 27 21" fill="none" xmlns="http://www.w3.org/2000/svg">
<path d="M4.78117 0.166626H22.2187C23.2909 0.166556 24.3226 0.5768 25.102 1.3132C25.8814 2.0496 26.3494 3.05633 26.4101 4.12687L26.4166 4.36454V16.6354C26.4167 17.7076 26.0064 18.7393 25.27 19.5187C24.5336 20.2981 23.5269 20.7661 22.4563 20.8268L22.2187 20.8333H4.78117C3.70891 20.8334 2.67727 20.4231 1.89787 19.6867C1.11848 18.9503 0.650417 17.9436 0.58971 16.873L0.583252 16.6354V4.36454C0.583182 3.29228 0.993426 2.26064 1.72983 1.48124C2.46623 0.70185 3.47296 0.233791 4.5435 0.173084L4.78117 0.166626H22.2187H4.78117ZM24.4791 7.10675L13.952 12.648C13.8331 12.7108 13.7025 12.7482 13.5684 12.7577C13.4343 12.7673 13.2997 12.7488 13.1731 12.7035L13.0491 12.6493L2.52075 7.10804V16.6354C2.52077 17.2027 2.7341 17.7492 3.11838 18.1665C3.50266 18.5838 4.02981 18.8414 4.59517 18.888L4.78117 18.8958H22.2187C22.7862 18.8957 23.3329 18.6822 23.7502 18.2977C24.1675 17.9131 24.425 17.3857 24.4713 16.8201L24.4791 16.6354V7.10675ZM22.2187 2.10413H4.78117C4.21388 2.10415 3.66734 2.31747 3.25004 2.70175C2.83274 3.08604 2.57518 3.61318 2.5285 4.17854L2.52075 4.36454V4.91867L13.4999 10.6963L24.4791 4.91737V4.36454C24.479 3.79705 24.2655 3.25034 23.881 2.833C23.4964 2.41567 22.969 2.15825 22.4034 2.11188L22.2187 2.10413Z" fill="#4A6FDA"/>
</svg>
