<svg width="29" height="31" viewBox="0 0 29 31" fill="none" xmlns="http://www.w3.org/2000/svg">
<path d="M20.4256 0.916748H27.0669L27.2127 0.937165L27.3571 0.977998L27.4446 1.01591C27.5613 1.0655 27.6677 1.13987 27.764 1.23466L27.8223 1.29883L27.8865 1.38196L27.9652 1.51321L28.0221 1.64446L28.0498 1.73779L28.0702 1.83112L28.0834 1.96966V8.57883C28.0833 8.85595 27.978 9.1227 27.7888 9.32519C27.5996 9.52769 27.3406 9.65082 27.0642 9.6697C26.7877 9.68859 26.5143 9.60183 26.2994 9.42695C26.0844 9.25207 25.9438 9.00211 25.9061 8.72758L25.8959 8.57883V4.64862L16.5042 14.0403C16.319 14.2255 16.0735 14.3382 15.8123 14.3577C15.5511 14.3772 15.2915 14.3024 15.0809 14.1467L14.9584 14.0417L10.5396 9.798L2.24169 18.0945C2.04652 18.2902 1.78451 18.4047 1.50833 18.4151C1.23214 18.4255 0.962266 18.3309 0.752959 18.1504C0.543651 17.97 0.410433 17.7169 0.380089 17.4422C0.349745 17.1675 0.424525 16.8915 0.589394 16.6697L0.695853 16.5472L9.76668 7.47633C9.95206 7.29132 10.1977 7.17896 10.4589 7.15969C10.7201 7.14042 10.9795 7.21552 11.19 7.37133L11.3125 7.47633L15.7313 11.7201L24.3471 3.10425H20.4242C20.1601 3.10388 19.9051 3.00801 19.7062 2.83432C19.5074 2.66063 19.378 2.42085 19.3421 2.15925L19.3319 2.0105C19.3319 1.74619 19.4276 1.49083 19.6013 1.29164C19.7751 1.09245 20.015 0.962902 20.2769 0.926956L20.4271 0.916748H20.4256ZM1.46877 22.7917C1.75885 22.7917 2.03705 22.907 2.24217 23.1121C2.44729 23.3172 2.56252 23.5954 2.56252 23.8855V28.9897C2.56252 29.2797 2.44729 29.5579 2.24217 29.7631C2.03705 29.9682 1.75885 30.0834 1.46877 30.0834C1.17869 30.0834 0.900489 29.9682 0.695371 29.7631C0.490253 29.5579 0.375019 29.2797 0.375019 28.9897V23.8855C0.375019 23.5954 0.490253 23.3172 0.695371 23.1121C0.900489 22.907 1.17869 22.7917 1.46877 22.7917ZM9.85419 18.0522C9.85419 17.7621 9.73895 17.4839 9.53383 17.2788C9.32872 17.0737 9.05052 16.9584 8.76044 16.9584C8.47036 16.9584 8.19216 17.0737 7.98704 17.2788C7.78192 17.4839 7.66669 17.7621 7.66669 18.0522V28.9897C7.66669 29.2797 7.78192 29.5579 7.98704 29.7631C8.19216 29.9682 8.47036 30.0834 8.76044 30.0834C9.05052 30.0834 9.32872 29.9682 9.53383 29.7631C9.73895 29.5579 9.85419 29.2797 9.85419 28.9897V18.0522ZM16.0521 19.8751C16.3422 19.8751 16.6204 19.9903 16.8255 20.1954C17.0306 20.4006 17.1459 20.6788 17.1459 20.9688V28.9897C17.1459 29.2797 17.0306 29.5579 16.8255 29.7631C16.6204 29.9682 16.3422 30.0834 16.0521 30.0834C15.762 30.0834 15.4838 29.9682 15.2787 29.7631C15.0736 29.5579 14.9584 29.2797 14.9584 28.9897V20.9688C14.9584 20.6788 15.0736 20.4006 15.2787 20.1954C15.4838 19.9903 15.762 19.8751 16.0521 19.8751ZM24.4375 13.6772C24.4375 13.3871 24.3223 13.1089 24.1172 12.9038C23.9121 12.6987 23.6338 12.5834 23.3438 12.5834C23.0537 12.5834 22.7755 12.6987 22.5704 12.9038C22.3653 13.1089 22.25 13.3871 22.25 13.6772V28.9897C22.25 29.2797 22.3653 29.5579 22.5704 29.7631C22.7755 29.9682 23.0537 30.0834 23.3438 30.0834C23.6338 30.0834 23.9121 29.9682 24.1172 29.7631C24.3223 29.5579 24.4375 29.2797 24.4375 28.9897V13.6772Z" fill="#4A6FDA"/>
</svg>
