<svg width="20" height="18" viewBox="0 0 20 18" fill="none" xmlns="http://www.w3.org/2000/svg">
<path d="M16.25 2.125C16.25 1.62772 16.4475 1.15081 16.7992 0.799175C17.1508 0.447544 17.6277 0.25 18.125 0.25C18.6223 0.25 19.0992 0.447544 19.4508 0.799175C19.8025 1.15081 20 1.62772 20 2.125V15.875C20 16.3723 19.8025 16.8492 19.4508 17.2008C19.0992 17.5525 18.6223 17.75 18.125 17.75C17.6277 17.75 17.1508 17.5525 16.7992 17.2008C16.4475 16.8492 16.25 16.3723 16.25 15.875V15.6075C13.5475 14.0563 10.6375 13.3038 7.61 13.0038L8.11625 16.3938C8.15025 16.5744 8.14401 16.7602 8.09797 16.9381C8.05193 17.1161 7.96723 17.2816 7.8499 17.4231C7.73257 17.5645 7.58549 17.6783 7.41914 17.7565C7.2528 17.8346 7.07127 17.875 6.8875 17.875H6.2025C5.95953 17.875 5.72183 17.8042 5.51847 17.6712C5.31512 17.5382 5.15493 17.3488 5.0575 17.1263L2.745 12.7638C2.66084 12.7624 2.57667 12.7611 2.4925 12.76C1.83046 12.7534 1.19765 12.4863 0.731131 12.0165C0.264613 11.5467 0.00193981 10.9121 0 10.25L0 7.75C0.00223098 7.08787 0.264462 6.4531 0.730204 5.98245C1.19595 5.5118 1.82792 5.24292 2.49 5.23375C3.52503 5.21971 4.55976 5.18846 5.59375 5.14C9.3975 4.9475 13.2787 4.07875 16.25 2.39125V2.125ZM17.5 2.125V15.875C17.5 16.0408 17.5658 16.1997 17.6831 16.3169C17.8003 16.4342 17.9592 16.5 18.125 16.5C18.2908 16.5 18.4497 16.4342 18.5669 16.3169C18.6842 16.1997 18.75 16.0408 18.75 15.875V2.125C18.75 1.95924 18.6842 1.80027 18.5669 1.68306C18.4497 1.56585 18.2908 1.5 18.125 1.5C17.9592 1.5 17.8003 1.56585 17.6831 1.68306C17.5658 1.80027 17.5 1.95924 17.5 2.125ZM16.25 3.8125C13.32 5.31875 9.73875 6.115 6.25 6.35375V11.645C6.475 11.6575 6.69875 11.6725 6.92125 11.69C10.1313 11.9263 13.2875 12.62 16.25 14.1813V3.8125ZM5 11.5813V6.41875C4.17025 6.44911 3.3402 6.47078 2.51 6.48375C2.17596 6.48767 1.85681 6.62254 1.62118 6.85933C1.38555 7.09613 1.25227 7.41595 1.25 7.75V10.25C1.25 10.9375 1.81 11.5025 2.5075 11.5113C3.33866 11.5209 4.16961 11.5442 5 11.5813ZM4.17875 12.8L6.19 16.5963L6.2025 16.6263H6.8875L6.885 16.6088L6.33125 12.9013C5.61421 12.858 4.89665 12.8238 4.17875 12.7988V12.8Z" fill="#4A6FDA"/>
</svg>
