<svg width="30" height="30" viewBox="0 0 30 30" fill="none" xmlns="http://www.w3.org/2000/svg">
<path fill-rule="evenodd" clip-rule="evenodd" d="M0 0H1.875V28.125H30V30H0V0ZM18.75 21.5625C18.75 21.8111 18.8488 22.0496 19.0246 22.2254C19.2004 22.4012 19.4389 22.5 19.6875 22.5H27.1875C27.4361 22.5 27.6746 22.4012 27.8504 22.2254C28.0262 22.0496 28.125 21.8111 28.125 21.5625V14.0625C28.125 13.8139 28.0262 13.5754 27.8504 13.3996C27.6746 13.2238 27.4361 13.125 27.1875 13.125C26.9389 13.125 26.7004 13.2238 26.5246 13.3996C26.3488 13.5754 26.25 13.8139 26.25 14.0625V18.9375L19.4756 10.6556C19.3927 10.5544 19.2895 10.4717 19.1727 10.4127C19.0558 10.3538 18.9279 10.32 18.7972 10.3134C18.6666 10.3069 18.5359 10.3278 18.4138 10.3748C18.2917 10.4218 18.1807 10.4938 18.0881 10.5862L13.2375 15.4369L6.3825 6.01125C6.23254 5.82057 6.01451 5.69544 5.77422 5.66215C5.53393 5.62886 5.29009 5.69002 5.09395 5.83275C4.8978 5.97549 4.76462 6.18871 4.72239 6.42759C4.68017 6.66647 4.73218 6.91242 4.8675 7.11375L12.3675 17.4262C12.4471 17.5359 12.5495 17.627 12.6677 17.6933C12.7859 17.7595 12.9171 17.7994 13.0522 17.8101C13.1873 17.8208 13.3231 17.8021 13.4502 17.7552C13.5774 17.7084 13.6929 17.6345 13.7888 17.5388L18.6806 12.645L25.2094 20.625H19.6875C19.4389 20.625 19.2004 20.7238 19.0246 20.8996C18.8488 21.0754 18.75 21.3139 18.75 21.5625Z" fill="#4A6FDA"/>
</svg>
