<svg width="34" height="34" viewBox="0 0 34 34" fill="none" xmlns="http://www.w3.org/2000/svg">
<path d="M3.16309 3.9202V29.8183C3.16326 29.8745 3.18002 29.9294 3.21126 29.9761C3.2425 30.0228 3.28684 30.0592 3.3387 30.0808C3.39057 30.1024 3.44766 30.1082 3.50282 30.0975C3.55798 30.0868 3.60875 30.06 3.64876 30.0206L17.1336 16.8699L3.64876 3.71789C3.60875 3.67844 3.55798 3.65169 3.50282 3.64098C3.44766 3.63026 3.39057 3.63608 3.3387 3.65768C3.28684 3.67929 3.2425 3.71573 3.21126 3.76243C3.18002 3.80913 3.16326 3.86401 3.16309 3.9202V3.9202Z" fill="white"/>
<path d="M22.7879 11.4662L5.87966 2.15077L5.86911 2.14484C5.57784 1.98668 5.30107 2.38076 5.53962 2.61008L18.7938 15.2837L22.7879 11.4662Z" fill="white"/>
<path d="M5.54088 31.1297C5.30101 31.3591 5.57779 31.7531 5.87038 31.595L5.88092 31.5891L22.7878 22.2737L18.7937 18.4548L5.54088 31.1297Z" fill="white"/>
<path d="M29.6133 15.2224L24.8917 12.6221L20.4521 16.8699L24.8917 21.1157L29.6133 18.5173C30.8977 17.8076 30.8977 15.9321 29.6133 15.2224Z" fill="white"/>
</svg>
