<svg width="28" height="28" viewBox="0 0 28 28" fill="none" xmlns="http://www.w3.org/2000/svg">
<path d="M14 0C11.2311 0 8.52431 0.821086 6.22202 2.35943C3.91973 3.89777 2.12532 6.08427 1.06569 8.64243C0.00606596 11.2006 -0.271181 14.0155 0.269012 16.7313C0.809205 19.447 2.14258 21.9416 4.10051 23.8995C6.05845 25.8574 8.55301 27.1908 11.2687 27.731C13.9845 28.2712 16.7994 27.9939 19.3576 26.9343C21.9157 25.8747 24.1022 24.0803 25.6406 21.778C27.1789 19.4757 28 16.7689 28 14C27.9958 10.2883 26.5194 6.72977 23.8948 4.10518C21.2702 1.48059 17.7117 0.00423472 14 0ZM14 26C10.8174 26 7.76516 24.7357 5.51472 22.4853C3.26429 20.2348 2.00001 17.1826 2.00001 14C2.00001 10.8174 3.26429 7.76515 5.51472 5.51472C7.76516 3.26428 10.8174 2 14 2V14L22.481 22.481C21.3688 23.5972 20.047 24.4827 18.5916 25.0866C17.1361 25.6905 15.5757 26.0009 14 26Z" fill="#4A6FDA"/>
</svg>
