<svg width="40" height="40" viewBox="0 0 40 40" fill="none" xmlns="http://www.w3.org/2000/svg">
<path d="M20.69 8H24.69C24.733 8.17471 24.7664 8.35164 24.79 8.53C24.912 9.92107 25.5483 11.2167 26.5747 12.1635C27.6011 13.1104 28.9437 13.6404 30.34 13.65V17.42C30.153 17.4808 29.9566 17.5079 29.76 17.5C28.8296 17.3972 27.9074 17.2302 27 17C26.2169 16.6986 25.4552 16.3445 24.72 15.94V16.44C24.72 18.44 24.72 20.5 24.72 22.53C24.7301 23.3562 24.6766 24.182 24.56 25C24.3846 26.3654 23.8624 27.6632 23.0431 28.7695C22.2239 29.8759 21.1349 30.7539 19.88 31.32C19.1426 31.5912 18.3875 31.8117 17.62 31.98H16.23C16.1718 31.9524 16.1116 31.929 16.05 31.91C14.6412 31.7308 13.3178 31.1356 12.249 30.2004C11.1802 29.2652 10.4146 28.0326 10.05 26.66C9.88219 26.0627 9.75523 25.4546 9.67004 24.84V23.67C9.78004 23.12 9.86004 22.57 10.02 22.03C10.4707 20.5881 11.3415 19.3134 12.5208 18.3692C13.7002 17.425 15.1344 16.8543 16.64 16.73C17.09 16.66 17.54 16.64 18.02 16.6C18.02 17.9 18.02 19.1 18.02 20.31C18.02 20.6 17.87 20.64 17.63 20.71C16.8633 20.8858 16.1111 21.1198 15.38 21.41C14.817 21.6222 14.3332 22.0031 13.9949 22.5007C13.6566 22.9984 13.4802 23.5884 13.49 24.19C13.4476 24.8723 13.6071 25.5519 13.9486 26.1441C14.29 26.7364 14.7983 27.2149 15.41 27.52C15.9694 27.8659 16.6192 28.0373 17.2764 28.0124C17.9336 27.9874 18.5685 27.7673 19.1 27.38C19.4981 27.095 19.8319 26.7297 20.0799 26.3077C20.3279 25.8857 20.4847 25.4164 20.54 24.93C20.6596 23.9347 20.7097 22.9323 20.69 21.93C20.69 17.49 20.69 13.0467 20.69 8.6C20.72 8.39 20.7 8.2 20.69 8Z" fill="white"/>
</svg>
