<svg width="23" height="23" viewBox="0 0 23 23" fill="none" xmlns="http://www.w3.org/2000/svg">
<path d="M18.7739 6.41121C17.8186 6.20113 16.9544 5.69383 16.3053 4.96211C15.6562 4.23038 15.2556 3.31184 15.161 2.33829V1.91663H11.8547V15.017C11.8554 15.5983 11.6732 16.1651 11.3338 16.6371C10.9945 17.109 10.5152 17.4622 9.96399 17.6467C9.41275 17.8311 8.81744 17.8375 8.26239 17.6648C7.70734 17.4921 7.2207 17.1492 6.87139 16.6845C6.55844 16.2733 6.36681 15.7826 6.31817 15.2681C6.26953 14.7536 6.36581 14.2358 6.59614 13.7731C6.82646 13.3105 7.18163 12.9215 7.62149 12.6502C8.06135 12.3789 8.56834 12.2361 9.08514 12.2379C9.37095 12.2362 9.65534 12.2783 9.92847 12.3625V9.00829C9.61063 8.96893 9.29033 8.95291 8.97014 8.96038C7.79073 8.99189 6.6461 9.36665 5.67643 10.0388C4.70675 10.7109 3.95412 11.6512 3.51068 12.7445C3.06725 13.8378 2.95226 15.0367 3.17981 16.1944C3.40735 17.3521 3.96755 18.4183 4.79181 19.2625C5.63656 20.1213 6.71757 20.7097 7.89747 20.9528C9.07737 21.1958 10.3029 21.0827 11.4184 20.6277C12.5338 20.1727 13.4888 19.3963 14.162 18.3973C14.8353 17.3983 15.1963 16.2217 15.1993 15.017V8.30871C16.5328 9.26124 18.1318 9.77079 19.7706 9.76537V6.50704C19.4487 6.50837 19.1275 6.47625 18.8122 6.41121H18.7739Z" fill="#4A6FDA"/>
</svg>
