<svg width="292" height="181" viewBox="0 0 292 181" fill="none" xmlns="http://www.w3.org/2000/svg">
<path fill-rule="evenodd" clip-rule="evenodd" d="M289.602 14.0312C290.964 14.9546 290.964 14.9551 290.963 14.9558L290.958 14.9642L290.943 14.9865C290.93 15.0056 290.911 15.0329 290.887 15.0684C290.838 15.1392 290.766 15.2424 290.672 15.3762C290.485 15.6436 290.207 16.033 289.841 16.5297C289.111 17.523 288.03 18.946 286.616 20.6803C283.79 24.1478 279.63 28.8667 274.285 33.8881C263.611 43.9147 248.12 55.2308 228.997 60.1087C222.141 61.8897 215.361 63.1106 208.864 63.9125L208.155 64L207.607 63.5398C202.228 59.0185 195.629 54.9249 188.16 52.482C174.902 48.1376 162.24 48.0642 154.379 50.7811L153.017 51.2518L152.373 49.959C152.222 49.6564 152.12 49.3147 152.1 48.9447C151.592 45.0024 153.051 40.7396 155.853 36.5351C158.69 32.2792 163.009 27.9179 168.508 23.7369C179.513 15.3707 195.447 7.57499 214.382 2.72859C233.505 -2.16595 252.512 0.317841 266.672 3.98152C273.763 5.81617 279.668 7.95433 283.804 9.63584C285.873 10.4769 287.502 11.2045 288.618 11.724C289.176 11.9838 289.605 12.1917 289.898 12.3357C290.044 12.4078 290.156 12.4639 290.233 12.5026C290.271 12.5219 290.301 12.5369 290.321 12.5474L290.345 12.5596L290.354 12.5643C290.355 12.5647 290.355 12.565 289.602 14.0312ZM287.125 14.6664C286.425 15.6154 285.401 16.9591 284.07 18.5916C281.317 21.9693 277.257 26.5767 272.037 31.4795C261.582 41.3005 246.568 52.2233 228.183 56.912L228.179 56.9129L228.176 56.9138C221.72 58.591 215.322 59.7626 209.165 60.5495C203.632 55.9963 196.867 51.8593 189.179 49.3449C176.46 45.1774 163.997 44.6984 155.294 47.0523C155.378 44.5181 156.445 41.5833 158.587 38.3693C161.162 34.5065 165.188 30.4006 170.494 26.3667C181.101 18.3035 196.62 10.6797 215.195 5.92569C233.581 1.2198 251.982 3.58802 265.851 7.17647C272.774 8.96789 278.54 11.0558 282.57 12.6939C284.517 13.4854 286.057 14.1711 287.125 14.6664ZM289.602 14.0312L290.355 12.565L292 13.416L290.964 14.9546L289.602 14.0312Z" fill="#4A6FDA"/>
<path fill-rule="evenodd" clip-rule="evenodd" d="M230.037 27.4582L254.326 3.14772L253.15 2L228 27.1717L228.263 27.694L229.003 27.3305C228.263 27.694 228.263 27.6947 228.263 27.6955L228.264 27.6974L228.267 27.7023C228.269 27.7062 228.271 27.7111 228.275 27.717C228.281 27.7289 228.289 27.7449 228.3 27.7649C228.322 27.8049 228.352 27.8607 228.393 27.9309C228.475 28.0713 228.596 28.2695 228.76 28.5137C229.089 29.002 229.592 29.6754 230.302 30.4403C231.723 31.9712 233.973 33.867 237.307 35.3777C243.993 38.4069 254.903 39.829 272 33.9144L271.454 32.3726C254.648 38.1866 244.196 36.7022 237.996 33.8928C234.887 32.4841 232.812 30.7276 231.52 29.3359C230.873 28.6396 230.422 28.0341 230.136 27.609C230.1 27.5558 230.067 27.5055 230.037 27.4582Z" fill="#4A6FDA"/>
<path fill-rule="evenodd" clip-rule="evenodd" d="M242.747 54C242.747 53.9999 242.747 53.9997 243.374 53.4825C244.001 52.9652 244 52.9648 244 52.9642L243.998 52.9624L243.993 52.9566C243.989 52.9517 243.983 52.9448 243.975 52.9359C243.959 52.9182 243.936 52.8927 243.906 52.8596C243.846 52.7934 243.757 52.697 243.64 52.5728C243.405 52.3245 243.058 51.965 242.598 51.5137C241.678 50.6113 240.309 49.3413 238.502 47.859C234.888 44.8951 229.519 41.0786 222.483 37.6549C208.401 30.8026 187.657 25.5334 161 31.7972L161.388 33.348C187.611 27.1861 207.956 32.3719 221.744 39.0809C228.643 42.4379 233.904 46.1787 237.437 49.0768C239.203 50.5256 240.537 51.763 241.426 52.635C241.87 53.071 242.203 53.4155 242.424 53.6494C242.534 53.7664 242.617 53.8557 242.671 53.9149C242.697 53.9445 242.717 53.9665 242.73 53.9808L242.744 53.9962L242.747 53.9995L242.747 54Z" fill="#4A6FDA"/>
<path fill-rule="evenodd" clip-rule="evenodd" d="M214.386 48C214.385 47.9999 214.385 47.9998 214.693 47.6984C215 47.397 215 47.3968 215 47.3965L214.999 47.3957L214.997 47.3932L214.991 47.3846C214.985 47.3774 214.977 47.3671 214.967 47.3539C214.946 47.3274 214.916 47.2892 214.876 47.2401C214.796 47.1419 214.678 47.0003 214.523 46.8229C214.211 46.4681 213.748 45.9698 213.138 45.3887C211.919 44.2267 210.107 42.7315 207.734 41.3904C202.982 38.7052 195.985 36.6431 187 39.0949L187.189 39.993C195.963 37.599 202.765 39.6141 207.373 42.2176C209.679 43.5208 211.437 44.9728 212.617 46.0969C213.207 46.6589 213.652 47.1384 213.948 47.4756C214.096 47.6442 214.207 47.7772 214.28 47.8671C214.317 47.912 214.344 47.9462 214.361 47.9686C214.37 47.9798 214.376 47.9881 214.38 47.9933L214.385 47.9989L214.385 47.9999L214.386 48Z" fill="#4A6FDA"/>
<path d="M248.121 9.7362L253.541 4H256.813C259.335 4.62577 264.38 5.91902 264.38 6.08589C264.38 6.29448 275.116 9.7362 276.65 9.7362C277.877 9.7362 281.319 11.1963 282.887 11.9264L288 12.865V15.5767L284.728 19.9571L280.127 26.319L269.39 33.8282L266.936 35.184L264.38 36.0184L261.21 36.9571L251.496 38L245.769 36.9571L241.066 36.0184L233.806 32.3681L229 27.6748L232.477 24.3374L238.407 18.9141L242.804 14.7423L248.121 9.7362Z" fill="#4A6FDA"/>
<path fill-rule="evenodd" clip-rule="evenodd" d="M253.376 4H256.971L257.031 4.01433C258.31 4.31826 260.228 4.78447 261.828 5.19531C262.628 5.40052 263.352 5.59306 263.878 5.74518C264.14 5.82081 264.361 5.88884 264.521 5.94501C264.598 5.97224 264.675 6.00179 264.739 6.03249C264.769 6.04654 264.817 6.07102 264.865 6.10637C264.877 6.11504 264.894 6.12781 264.913 6.14486C264.977 6.17324 265.08 6.21383 265.222 6.26632C265.513 6.37366 265.937 6.51834 266.456 6.68839C267.494 7.02792 268.896 7.46272 270.348 7.89163C271.8 8.32063 273.298 8.74233 274.527 9.0563C275.141 9.21339 275.684 9.34235 276.119 9.43168C276.569 9.52424 276.859 9.5647 276.992 9.5647C277.378 9.5647 277.887 9.67044 278.419 9.81579C278.964 9.96474 279.58 10.169 280.199 10.3929C281.409 10.8299 282.657 11.351 283.462 11.7086L289 12.6829V15.9072L285.586 20.2862L285.582 20.2925L280.876 26.5266L269.912 33.8745L267.361 35.225L264.721 36.0509L261.46 36.976L251.507 38L245.634 36.9749L240.8 36.0506L233.317 32.4452L228 27.4698L231.921 23.8627L237.927 18.6005L242.374 14.5567L242.376 14.5553L247.748 9.70889L253.376 4ZM253.816 5.01176L248.472 10.4323L243.079 15.2975L243.078 15.2988L238.625 19.3477L232.622 24.6079L229.504 27.4761L233.918 31.6066L241.134 35.0835L245.824 35.9803L251.545 36.9788L261.26 35.9792L264.418 35.0831L266.954 34.2903L269.372 33.0101L280.147 25.7887L284.756 19.6824L287.965 15.5657V13.5288L283.151 12.6819L283.091 12.6555C282.307 12.3053 281.051 11.7792 279.84 11.3418C279.235 11.1231 278.647 10.9289 278.14 10.7902C277.619 10.6478 277.227 10.5765 276.992 10.5765C276.737 10.5765 276.347 10.5126 275.906 10.4218C275.448 10.3277 274.887 10.1943 274.265 10.0352C273.019 9.71678 271.508 9.29113 270.049 8.86013C268.589 8.42904 267.177 7.99119 266.128 7.64778C265.604 7.47636 265.166 7.327 264.857 7.21301C264.704 7.15659 264.573 7.10564 264.478 7.06299C264.432 7.0427 264.379 7.01772 264.332 6.98961C264.311 6.97756 264.274 6.95452 264.235 6.92095C264.218 6.91435 264.196 6.90629 264.169 6.89676C264.039 6.85096 263.842 6.78967 263.585 6.71543C263.074 6.56782 262.362 6.37842 261.565 6.17387C259.998 5.77156 258.121 5.31507 256.847 5.01176H253.816Z" fill="#4A6FDA"/>
<path fill-rule="evenodd" clip-rule="evenodd" d="M2.39826 14.0312C1.03575 14.9546 1.03612 14.9551 1.03657 14.9558L1.04227 14.9642L1.0574 14.9865C1.07035 15.0056 1.08903 15.0329 1.11339 15.0684C1.16211 15.1392 1.23359 15.2424 1.32753 15.3762C1.5154 15.6436 1.79317 16.033 2.15852 16.5297C2.88915 17.523 3.97048 18.946 5.38404 20.6803C8.21019 24.1478 12.3697 28.8667 17.7152 33.8881C28.389 43.9147 43.88 55.2308 63.0026 60.1087C69.8586 61.8897 76.6395 63.1106 83.1363 63.9125L83.8453 64L84.3929 63.5398C89.7724 59.0185 96.3706 54.9249 103.84 52.482L103.841 52.4817C117.099 48.1373 129.76 48.0642 137.621 50.7811L138.983 51.2518L139.627 49.959C139.778 49.6564 139.88 49.3147 139.9 48.9447C140.408 45.0024 138.949 40.7396 136.147 36.5351C133.31 32.2792 128.991 27.9179 123.492 23.7369C112.487 15.3707 96.5534 7.57499 77.618 2.72859C58.4945 -2.16595 39.4881 0.317841 25.3282 3.98152C18.2373 5.81617 12.3324 7.95433 8.19565 9.63584C6.12658 10.4769 4.4979 11.2045 3.38223 11.724C2.82434 11.9838 2.39456 12.1917 2.10197 12.3357C1.95566 12.4078 1.84364 12.4639 1.76704 12.5026C1.72874 12.5219 1.69929 12.5369 1.67883 12.5474L1.6549 12.5596L1.64588 12.5643C1.64516 12.5647 1.64458 12.565 2.39826 14.0312ZM4.87512 14.6664C5.57534 15.6154 6.59913 16.9591 7.92964 18.5916C10.6827 21.9693 14.7435 26.5767 19.9627 31.4795C30.4176 41.3005 45.4319 52.2233 63.8171 56.912L63.8207 56.9129L63.8242 56.9138C70.2801 58.591 76.678 59.7626 82.8355 60.5495C88.368 55.9963 95.133 51.8593 102.821 49.3449C115.54 45.1774 128.003 44.6984 136.706 47.0523C136.622 44.5181 135.555 41.5833 133.413 38.3693C130.838 34.5065 126.812 30.4006 121.506 26.3667C110.899 18.3035 95.3797 10.6797 76.8052 5.92569C58.4188 1.2198 40.0185 3.58802 26.1493 7.17647C19.2255 8.96789 13.4602 11.0558 9.43038 12.6939C7.48315 13.4854 5.94296 14.1711 4.87512 14.6664ZM2.39826 14.0312L1.64458 12.565L0 13.416L1.03575 14.9546L2.39826 14.0312Z" fill="#4A6FDA"/>
<path fill-rule="evenodd" clip-rule="evenodd" d="M61.9635 27.4582L37.6741 3.14772L38.8503 2L64 27.1717L63.7373 27.694L62.9972 27.3305C63.7373 27.694 63.737 27.6947 63.7366 27.6955L63.7356 27.6974L63.7331 27.7023C63.7311 27.7062 63.7286 27.7111 63.7255 27.717C63.7193 27.7289 63.7108 27.7449 63.7001 27.7649C63.6785 27.8049 63.6476 27.8607 63.6068 27.9309C63.5254 28.0713 63.4045 28.2695 63.2401 28.5137C62.9114 29.002 62.4083 29.6754 61.6981 30.4403C60.2767 31.9712 58.0272 33.867 54.693 35.3777C48.0073 38.4069 37.0968 39.829 20 33.9144L20.5461 32.3726C37.3519 38.1866 47.8035 36.7022 54.0042 33.8928C57.1133 32.4841 59.1881 30.7276 60.4802 29.3359C61.1267 28.6396 61.5777 28.0341 61.8639 27.609C61.8996 27.5558 61.9328 27.5055 61.9635 27.4582Z" fill="#4A6FDA"/>
<path fill-rule="evenodd" clip-rule="evenodd" d="M49.2529 54C49.2529 53.9999 49.2531 53.9997 48.6261 53.4825C47.9991 52.9652 47.9995 52.9648 48 52.9642L48.0016 52.9624L48.0068 52.9566C48.0111 52.9517 48.0172 52.9448 48.0251 52.9359C48.041 52.9182 48.0639 52.8927 48.0941 52.8596C48.1543 52.7934 48.2431 52.697 48.3603 52.5728C48.5946 52.3245 48.9425 51.965 49.4025 51.5137C50.3225 50.6113 51.6915 49.3413 53.4984 47.859C57.1118 44.8951 62.4807 41.0786 69.5167 37.6549C83.5991 30.8026 104.343 25.5334 131 31.7972L130.612 33.348C104.389 27.1861 84.0437 32.3719 70.2559 39.0809C63.3569 42.4379 58.0957 46.1787 54.5627 49.0768C52.7965 50.5256 51.4633 51.763 50.5743 52.635C50.1299 53.071 49.7966 53.4155 49.5759 53.6494C49.4655 53.7664 49.3833 53.8557 49.3295 53.9149C49.3026 53.9445 49.2827 53.9665 49.27 53.9808L49.2562 53.9962L49.2533 53.9995L49.2529 54Z" fill="#4A6FDA"/>
<path fill-rule="evenodd" clip-rule="evenodd" d="M77.6145 48C77.6146 47.9999 77.6147 47.9998 77.3071 47.6984C76.9996 47.397 76.9998 47.3968 77 47.3965L77.0006 47.3957L77.0025 47.3932L77.0091 47.3846C77.0146 47.3774 77.0226 47.3671 77.033 47.3539C77.0537 47.3274 77.0841 47.2892 77.124 47.2401C77.2038 47.1419 77.3218 47.0003 77.4775 46.8229C77.7889 46.4681 78.2515 45.9698 78.8616 45.3887C80.0814 44.2267 81.8929 42.7315 84.2664 41.3904C89.0184 38.7052 96.0151 36.6431 105 39.0949L104.811 39.993C96.0373 37.599 89.235 39.6141 84.6274 42.2176C82.3211 43.5208 80.5627 44.9728 79.3826 46.0969C78.7927 46.6589 78.3478 47.1384 78.0518 47.4756C77.9038 47.6442 77.793 47.7772 77.72 47.8671C77.6835 47.912 77.6564 47.9462 77.6388 47.9686C77.63 47.9798 77.6236 47.9881 77.6196 47.9933L77.6153 47.9989L77.6145 47.9999L77.6145 48Z" fill="#4A6FDA"/>
<path d="M43.8787 8.7362L38.4593 3H35.1872C32.6649 3.62577 27.6204 4.91902 27.6204 5.08589C27.6204 5.29448 16.8839 8.7362 15.3501 8.7362C14.1231 8.7362 10.6805 10.1963 9.11265 10.9264L4 11.865V14.5767L7.27209 18.9571L11.8735 25.319L21.5 34.184H25.0641L27.6204 35.0184L30.7903 35.9571L40.5043 37L46.2305 35.9571L50.9341 35.0184L58.1941 31.3681L63 26.6748L59.5234 23.3374L53.5927 17.9141L49.1958 13.7423L43.8787 8.7362Z" fill="#4A6FDA"/>
<path fill-rule="evenodd" clip-rule="evenodd" d="M38.0396 4H34.5039L34.4446 4.01433C33.1871 4.31826 31.3001 4.78447 29.7263 5.19531C28.9401 5.40052 28.2277 5.59306 27.7098 5.74518C27.4524 5.82081 27.2348 5.88884 27.0781 5.94501C27.0021 5.97224 26.9259 6.00179 26.8629 6.03249C26.834 6.04654 26.7865 6.07102 26.7391 6.10637C26.7274 6.11504 26.7111 6.12781 26.6925 6.14486C26.6291 6.17324 26.5281 6.21383 26.388 6.26632C26.1016 6.37366 25.685 6.51834 25.174 6.68839C24.1536 7.02792 22.7744 7.46272 21.3462 7.89163C19.9176 8.32063 18.4447 8.74233 17.2361 9.0563C16.6314 9.21339 16.0973 9.34235 15.6701 9.43168C15.2274 9.52424 14.9422 9.5647 14.8114 9.5647C14.4314 9.5647 13.9308 9.67044 13.4078 9.81579C12.8719 9.96474 12.2659 10.169 11.6565 10.3929C10.4669 10.8299 9.23928 11.351 8.44725 11.7086L3 12.6829V15.9072L6.35773 20.2862L6.36246 20.2925L10.9907 26.5266L21.7748 33.8745L24.2839 35.225L26.8815 36.0509L30.0881 36.976L39.8781 38L45.6553 36.9749L50.4098 36.0506L57.7703 32.4452L63 27.4698L59.143 23.8627L53.2362 18.6005L48.8613 14.5567L48.8599 14.5553L43.576 9.70889L38.0396 4ZM37.6068 5.01176L42.8635 10.4323L48.1678 15.2975L48.1692 15.2988L52.5496 19.3477L58.4541 24.6079L61.5211 27.4761L57.1794 31.6066L50.0812 35.0835L45.4682 35.9803L39.8412 36.9788L30.2849 35.9792L27.1786 35.0831L24.6851 34.2903L22.3067 33.0101L11.7082 25.7887L7.17477 19.6824L4.01822 15.5657V13.5288L8.75341 12.6819L8.81165 12.6555C9.58372 12.3053 10.8192 11.7792 12.0096 11.3418C12.6051 11.1231 13.1828 10.9289 13.6821 10.7902C14.1943 10.6478 14.5804 10.5765 14.8114 10.5765C15.0624 10.5765 15.4454 10.5126 15.8797 10.4218C16.3296 10.3277 16.8813 10.1943 17.4937 10.0352C18.7193 9.71678 20.2055 9.29113 21.6407 8.86013C23.0763 8.42904 24.4653 7.99119 25.4973 7.64778C26.0125 7.47636 26.4431 7.327 26.7473 7.21301C26.8979 7.15659 27.0261 7.10564 27.1204 7.06299C27.1653 7.0427 27.2173 7.01772 27.2639 6.98961C27.2838 6.97756 27.3204 6.95452 27.3586 6.92095C27.3755 6.91435 27.3969 6.90629 27.4235 6.89676C27.5513 6.85096 27.7458 6.78967 27.9985 6.71543C28.501 6.56782 29.2013 6.37842 29.985 6.17387C31.5262 5.77156 33.3724 5.31507 34.6259 5.01176H37.6068Z" fill="#4A6FDA"/>
<path d="M101.069 86.9892C79.017 94.0805 57 80.1377 57 80.1377C57 80.1377 62.3827 67.2911 72.6619 58.8637C78.253 54.2732 85.0943 50.0938 92.8384 47.593C106.451 43.208 119.613 43.071 127.982 45.9144C133.157 47.6958 136.525 50.6419 136.942 54.4445C138.053 64.3449 123.12 79.8979 101.069 86.9892Z" fill="white"/>
<path fill-rule="evenodd" clip-rule="evenodd" d="M93.0862 49.7465C106.348 45.4623 119.012 45.3896 126.876 48.0684L93.0862 49.7465ZM126.876 48.0684C131.793 49.7669 134.352 52.3541 134.662 55.1876L134.662 55.1918C134.889 57.2204 134.307 59.6993 132.826 62.4697C131.352 65.226 129.041 68.1671 125.988 71.0664C119.881 76.8646 110.934 82.3716 100.224 85.8261C89.7471 89.2052 79.2063 87.5903 71.1912 85.0607C67.1959 83.7998 63.8654 82.3231 61.537 81.1631C60.5502 80.6716 59.7453 80.2378 59.1483 79.9031C59.2557 79.678 59.3778 79.4264 59.5146 79.151C60.1563 77.8583 61.1184 76.0435 62.3923 73.9718C64.9492 69.8138 68.7203 64.6901 73.6234 60.6584L73.6243 60.6576C79.0437 56.1947 85.6465 52.1562 93.0858 49.7466M57.0451 80.5605C55.5248 79.939 55.525 79.9386 55.5252 79.9382L55.5269 79.934L55.531 79.9244C55.5331 79.9193 55.5358 79.913 55.539 79.9054L55.5449 79.8915C55.5569 79.8635 55.574 79.8235 55.5964 79.7719C55.6412 79.6689 55.7069 79.5199 55.7934 79.3292C55.9664 78.9477 56.2228 78.3988 56.5616 77.7163C57.2389 76.352 58.2478 74.4496 59.5817 72.2804C62.2404 67.9568 66.2325 62.5041 71.5195 58.1563C77.1857 53.4902 84.1473 49.2172 92.0625 46.6535L92.0637 46.6532C105.791 42.218 119.221 42.0177 127.951 44.9924L127.954 44.9934L127.957 44.9945C133.297 46.8385 137.415 50.1092 137.933 54.8365C138.256 57.7293 137.401 60.8741 135.734 63.9915C134.059 67.1239 131.508 70.3356 128.266 73.4144C121.78 79.5726 112.395 85.3236 101.244 88.9203C89.8587 92.5923 78.5552 90.8009 70.1914 88.1613C65.9972 86.8376 62.5046 85.2891 60.0573 84.0699C58.8327 83.4598 57.867 82.9309 57.2031 82.5516C56.8711 82.362 56.6143 82.2096 56.4381 82.1032C56.35 82.0499 56.282 82.0082 56.2349 81.9789C56.2113 81.9643 56.1929 81.9528 56.1798 81.9446L56.1641 81.9347L56.1592 81.9316L56.1575 81.9305C56.1569 81.9301 56.1563 81.9298 57.0451 80.5605ZM57.0451 80.5605L56.1563 81.9298L55 81.1953L55.5248 79.939L57.0451 80.5605Z" fill="#4A6FDA"/>
<path fill-rule="evenodd" clip-rule="evenodd" d="M87.2775 51C87.2771 50.9996 87.2768 50.9992 86.6386 51.5344C86.0003 52.0697 86.0001 52.0694 86 52.0693L86.0013 52.0707L86.0082 52.0786C86.0148 52.0862 86.0254 52.0983 86.0397 52.1148C86.0682 52.1479 86.1116 52.1987 86.1684 52.2669C86.2821 52.4032 86.4491 52.6084 86.6572 52.8778C87.0737 53.4169 87.6538 54.2122 88.2996 55.2265C89.5928 57.2576 91.141 60.1538 92.1715 63.6207C94.2235 70.5245 94.2357 79.7045 86.0008 88.9284L87.2763 90C95.9575 80.2761 95.9697 70.4913 93.7927 63.1672C92.7087 59.5201 91.0851 56.4865 89.7352 54.3664C89.0595 53.3051 88.4502 52.4693 88.0076 51.8963C87.7862 51.6097 87.6063 51.3886 87.4804 51.2376C87.4174 51.1621 87.368 51.1041 87.3335 51.0642C87.3163 51.0442 87.3028 51.0288 87.2933 51.0179L87.282 51.0051L87.2787 51.0013L87.2775 51Z" fill="#4A6FDA"/>
<path fill-rule="evenodd" clip-rule="evenodd" d="M97.6827 57C97.6826 56.9998 97.6824 56.9996 97.3413 57.2206C97.0001 57.4417 97 57.4416 97 57.4415L97.0001 57.4416L97.0007 57.4425L97.0038 57.4474C97.0068 57.4521 97.0114 57.4594 97.0177 57.4694C97.0302 57.4894 97.0492 57.52 97.074 57.5609C97.1236 57.6427 97.1964 57.7656 97.287 57.9268C97.4682 58.2493 97.7205 58.7248 98.0014 59.3314C98.5636 60.5453 99.2384 62.2799 99.688 64.3597C100.587 68.5168 100.584 74.0379 97.0003 79.5573L97.6823 80C101.416 74.2506 101.413 68.4927 100.483 64.188C100.018 62.0369 99.3204 60.2449 98.7392 58.9899C98.4485 58.362 98.1863 57.8676 97.9959 57.5287C97.9006 57.3592 97.8233 57.2285 97.7693 57.1394C97.7423 57.0949 97.7211 57.0607 97.7064 57.0373C97.699 57.0256 97.6933 57.0166 97.6893 57.0103L97.6846 57.0029L97.6832 57.0007L97.6827 57Z" fill="#4A6FDA"/>
<path d="M194.931 86.9892C216.983 94.0805 239 80.1377 239 80.1377C239 80.1377 233.617 67.2911 223.338 58.8637C217.747 54.2732 210.906 50.0938 203.162 47.593C189.549 43.208 176.387 43.071 168.018 45.9144C162.843 47.6958 159.475 50.6419 159.058 54.4445C157.947 64.3449 172.88 79.8979 194.931 86.9892Z" fill="white"/>
<path fill-rule="evenodd" clip-rule="evenodd" d="M202.914 49.7465C189.652 45.4623 176.988 45.3896 169.124 48.0684L202.914 49.7465ZM169.124 48.0684C164.207 49.7669 161.648 52.3541 161.338 55.1876L161.338 55.1918C161.111 57.2204 161.693 59.6993 163.174 62.4697C164.648 65.226 166.959 68.1671 170.012 71.0664C176.119 76.8646 185.066 82.3716 195.776 85.8261C206.253 89.2052 216.794 87.5903 224.809 85.0607C228.804 83.7998 232.135 82.3231 234.463 81.1631C235.45 80.6716 236.255 80.2378 236.852 79.9031C236.744 79.678 236.622 79.4264 236.485 79.151C235.844 77.8583 234.882 76.0435 233.608 73.9718C231.051 69.8138 227.28 64.6901 222.377 60.6584L222.376 60.6576C216.956 56.1947 210.353 52.1562 202.914 49.7466M238.955 80.5605C240.475 79.939 240.475 79.9386 240.475 79.9382L240.473 79.934L240.469 79.9244C240.467 79.9193 240.464 79.913 240.461 79.9054L240.455 79.8915C240.443 79.8635 240.426 79.8235 240.404 79.7719C240.359 79.6689 240.293 79.5199 240.207 79.3292C240.034 78.9477 239.777 78.3988 239.438 77.7163C238.761 76.352 237.752 74.4496 236.418 72.2804C233.76 67.9568 229.768 62.5041 224.48 58.1563C218.814 53.4902 211.853 49.2172 203.937 46.6535L203.936 46.6532C190.209 42.218 176.779 42.0177 168.049 44.9924L168.046 44.9934L168.043 44.9945C162.703 46.8385 158.585 50.1092 158.067 54.8365C157.744 57.7293 158.599 60.8741 160.266 63.9915C161.941 67.1239 164.492 70.3356 167.734 73.4144C174.22 79.5726 183.605 85.3236 194.756 88.9203C206.141 92.5923 217.445 90.8009 225.809 88.1613C230.003 86.8376 233.495 85.2891 235.943 84.0699C237.167 83.4598 238.133 82.9309 238.797 82.5516C239.129 82.362 239.386 82.2096 239.562 82.1032C239.65 82.0499 239.718 82.0082 239.765 81.9789C239.789 81.9643 239.807 81.9528 239.82 81.9446L239.836 81.9347L239.841 81.9316L239.842 81.9305C239.843 81.9301 239.844 81.9298 238.955 80.5605ZM238.955 80.5605L239.844 81.9298L241 81.1953L240.475 79.939L238.955 80.5605Z" fill="#4A6FDA"/>
<path fill-rule="evenodd" clip-rule="evenodd" d="M208.722 51C208.723 50.9996 208.723 50.9992 209.361 51.5344C210 52.0697 210 52.0694 210 52.0693L209.999 52.0707L209.992 52.0786C209.985 52.0862 209.975 52.0983 209.96 52.1148C209.932 52.1479 209.888 52.1987 209.832 52.2669C209.718 52.4032 209.551 52.6084 209.343 52.8778C208.926 53.4169 208.346 54.2122 207.7 55.2265C206.407 57.2576 204.859 60.1538 203.829 63.6207C201.776 70.5245 201.764 79.7045 209.999 88.9284L208.724 90C200.042 80.2761 200.03 70.4913 202.207 63.1672C203.291 59.5201 204.915 56.4865 206.265 54.3664C206.941 53.3051 207.55 52.4693 207.992 51.8963C208.214 51.6097 208.394 51.3886 208.52 51.2376C208.583 51.1621 208.632 51.1041 208.666 51.0642C208.684 51.0442 208.697 51.0288 208.707 51.0179L208.718 51.0051L208.721 51.0013L208.722 51Z" fill="#4A6FDA"/>
<path fill-rule="evenodd" clip-rule="evenodd" d="M198.317 57C198.317 56.9998 198.318 56.9996 198.659 57.2206C199 57.4417 199 57.4416 199 57.4415L199 57.4416L198.999 57.4425L198.996 57.4474C198.993 57.4521 198.989 57.4594 198.982 57.4694C198.97 57.4894 198.951 57.52 198.926 57.5609C198.876 57.6427 198.804 57.7656 198.713 57.9268C198.532 58.2493 198.28 58.7248 197.999 59.3314C197.436 60.5453 196.762 62.2799 196.312 64.3597C195.413 68.5168 195.416 74.0379 199 79.5573L198.318 80C194.584 74.2506 194.587 68.4927 195.517 64.188C195.982 62.0369 196.68 60.2449 197.261 58.9899C197.552 58.362 197.814 57.8676 198.004 57.5287C198.099 57.3592 198.177 57.2285 198.231 57.1394C198.258 57.0949 198.279 57.0607 198.294 57.0373C198.301 57.0256 198.307 57.0166 198.311 57.0103L198.315 57.0029L198.317 57.0007L198.317 57Z" fill="#4A6FDA"/>
<path d="M161 18C161 26.2993 146 33 146 33C146 33 131 26.2993 131 18C131 9.70068 137.701 3 146 3C154.299 3 161 9.73469 161 18Z" fill="url(#paint0_linear)"/>
<path d="M160 126C160 156.365 146 181 146 181C146 181 132 156.365 132 126C132 95.6354 138.263 71 146 71C153.737 71 160 95.6354 160 126Z" fill="url(#paint1_linear)"/>
<path d="M160 115C160 133.777 146 149 146 149C146 149 132 133.777 132 115C132 96.2229 138.282 81 146 81C153.752 81 160 96.2229 160 115Z" fill="url(#paint2_linear)"/>
<path d="M158 98C158 112.897 146.5 125 146.5 125C146.5 125 135 112.931 135 98C135 83.069 140.141 71 146.5 71C152.859 71 158 83.1034 158 98Z" fill="url(#paint3_linear)"/>
<path d="M159 74.5C159 90.791 146.5 104 146.5 104C146.5 104 134 90.8249 134 74.5C134 58.1751 139.6 45 146.5 45C153.4 45 159 58.209 159 74.5Z" fill="url(#paint4_linear)"/>
<path d="M166 51.5153C166 66.1252 146.017 78 146.017 78C146.017 78 126 66.1252 126 51.5153C126 36.9053 137.486 24.2967 145.983 25.0305C154.514 25.7643 166 36.8719 166 51.5153Z" fill="url(#paint5_linear)"/>
<path d="M87.2843 89C99.447 76.42 92.3521 59.0917 87.2843 52C70.9586 57.8378 60.959 73.6176 58 80.7778C62.1631 87.1911 79.2575 88.9315 87.2843 89Z" fill="#4A6FDA"/>
<path fill-rule="evenodd" clip-rule="evenodd" d="M87.9807 51L88.204 51.3121C90.7709 54.9001 93.8443 61.0627 94.7422 67.9307C95.6422 74.8148 94.3566 82.4366 88.1555 88.8433L88.0039 89L87.7865 88.9981C83.7572 88.9638 77.4559 88.511 71.6304 87.261C68.7179 86.636 65.9071 85.8082 63.553 84.7246C61.2079 83.6451 59.2622 82.2874 58.1474 80.5719L58 80.345L58.1035 80.0948C59.6016 76.4739 62.8642 70.71 67.8005 65.1172C72.7379 59.5231 79.3723 54.0748 87.6206 51.1286L87.9807 51ZM59.1505 80.233C60.1382 81.6175 61.8195 82.8002 63.9765 83.7931C66.2388 84.8345 68.9712 85.643 71.8427 86.2592C77.4815 87.4691 83.5906 87.9235 87.577 87.9716C93.3811 81.8739 94.5951 74.6595 93.7329 68.0643C92.8868 61.593 90.0419 55.7452 87.5994 52.2252C79.7259 55.1259 73.3497 60.3725 68.5617 65.7973C63.8156 71.1746 60.6514 76.7029 59.1505 80.233Z" fill="#4A6FDA"/>
<path d="M207.902 89C195.402 76.42 202.694 59.0917 207.902 52C224.681 57.8378 234.959 73.6176 238 80.7778C233.721 87.1911 216.152 88.9315 207.902 89Z" fill="#4A6FDA"/>
<path fill-rule="evenodd" clip-rule="evenodd" d="M208.019 51L207.796 51.3121C205.229 54.9001 202.156 61.0627 201.258 67.9307C200.358 74.8148 201.643 82.4366 207.844 88.8433L207.996 89L208.213 88.9981C212.243 88.9638 218.544 88.511 224.37 87.261C227.282 86.636 230.093 85.8082 232.447 84.7246C234.792 83.6451 236.738 82.2874 237.853 80.5719L238 80.345L237.896 80.0948C236.398 76.4739 233.136 70.71 228.2 65.1172C223.262 59.5231 216.628 54.0748 208.379 51.1286L208.019 51ZM236.849 80.233C235.862 81.6175 234.18 82.8002 232.023 83.7931C229.761 84.8345 227.029 85.643 224.157 86.2592C218.519 87.4691 212.409 87.9235 208.423 87.9716C202.619 81.8739 201.405 74.6595 202.267 68.0643C203.113 61.593 205.958 55.7452 208.401 52.2252C216.274 55.1259 222.65 60.3725 227.438 65.7973C232.184 71.1746 235.349 76.7029 236.849 80.233Z" fill="#4A6FDA"/>
<defs>
<linearGradient id="paint0_linear" x1="146.113" y1="33.0378" x2="146.113" y2="3.01727" gradientUnits="userSpaceOnUse">
<stop stop-color="#7093F9"/>
<stop offset="1" stop-color="#4A6FDA"/>
</linearGradient>
<linearGradient id="paint1_linear" x1="146.106" y1="181.138" x2="146.106" y2="71.0633" gradientUnits="userSpaceOnUse">
<stop stop-color="#7093F9"/>
<stop offset="1" stop-color="#4A6FDA"/>
</linearGradient>
<linearGradient id="paint2_linear" x1="146.106" y1="149.086" x2="146.106" y2="81.0392" gradientUnits="userSpaceOnUse">
<stop stop-color="#7093F9"/>
<stop offset="1" stop-color="#4A6FDA"/>
</linearGradient>
<linearGradient id="paint3_linear" x1="146.587" y1="125.068" x2="146.587" y2="71.0311" gradientUnits="userSpaceOnUse">
<stop stop-color="#7093F9"/>
<stop offset="1" stop-color="#4A6FDA"/>
</linearGradient>
<linearGradient id="paint4_linear" x1="146.594" y1="104.074" x2="146.594" y2="45.034" gradientUnits="userSpaceOnUse">
<stop stop-color="#7093F9"/>
<stop offset="1" stop-color="#4A6FDA"/>
</linearGradient>
<linearGradient id="paint5_linear" x1="146.151" y1="78.0667" x2="146.151" y2="25.0305" gradientUnits="userSpaceOnUse">
<stop stop-color="#7093F9"/>
<stop offset="1" stop-color="#4A6FDA"/>
</linearGradient>
</defs>
</svg>
