<svg width="37" height="33" viewBox="0 0 37 33" fill="none" xmlns="http://www.w3.org/2000/svg">
<path d="M1.81543 10.5646C1.81543 8.35547 3.60629 6.56461 5.81543 6.56461H8.05162C9.38903 6.56461 10.638 5.8962 11.3798 4.78341L12.3557 3.31965C13.0975 2.20686 14.3464 1.53845 15.6839 1.53845H21.4547C22.7921 1.53845 24.041 2.20686 24.7829 3.31965L25.7587 4.78341C26.5006 5.8962 27.7495 6.56461 29.0869 6.56461H31.3231C33.5323 6.56461 35.3231 8.35547 35.3231 10.5646V27.6954C35.3231 29.9045 33.5323 31.6954 31.3231 31.6954H5.81543C3.60629 31.6954 1.81543 29.9045 1.81543 27.6954V10.5646Z" stroke="white" stroke-width="2" stroke-linecap="round" stroke-linejoin="round"/>
<circle cx="18.5677" cy="18.2919" r="6.70154" stroke="white" stroke-width="2" stroke-linecap="round" stroke-linejoin="round"/>
</svg>
