<svg width="26" height="24" viewBox="0 0 26 24" fill="none" xmlns="http://www.w3.org/2000/svg">
<path d="M21.125 3.0625C21.125 2.41604 21.3818 1.79605 21.8389 1.33893C22.296 0.881807 22.916 0.625 23.5625 0.625C24.209 0.625 24.829 0.881807 25.2861 1.33893C25.7432 1.79605 26 2.41604 26 3.0625V20.9375C26 21.584 25.7432 22.204 25.2861 22.6611C24.829 23.1182 24.209 23.375 23.5625 23.375C22.916 23.375 22.296 23.1182 21.8389 22.6611C21.3818 22.204 21.125 21.584 21.125 20.9375V20.5898C17.6117 18.5731 13.8287 17.5949 9.893 17.2049L10.5511 21.6119C10.5953 21.8467 10.5872 22.0883 10.5274 22.3196C10.4675 22.5509 10.3574 22.7661 10.2049 22.95C10.0523 23.1339 9.86114 23.2819 9.64489 23.3834C9.42864 23.4849 9.19266 23.5376 8.95375 23.5375H8.06325C7.74739 23.5375 7.43838 23.4454 7.17402 23.2725C6.90966 23.0997 6.70141 22.8535 6.57475 22.5641L3.5685 16.8929C3.45909 16.8911 3.34967 16.8895 3.24025 16.888C2.37959 16.8795 1.55694 16.5322 0.950471 15.9215C0.343997 15.3108 0.00252175 14.4857 0 13.625L0 10.375C0.00290027 9.51423 0.343801 8.68903 0.949265 8.07719C1.55473 7.46534 2.3763 7.1158 3.237 7.10388C4.58254 7.08563 5.92769 7.045 7.27187 6.982C12.2168 6.73175 17.2624 5.60238 21.125 3.40863V3.0625ZM22.75 3.0625V20.9375C22.75 21.153 22.8356 21.3597 22.988 21.512C23.1403 21.6644 23.347 21.75 23.5625 21.75C23.778 21.75 23.9847 21.6644 24.137 21.512C24.2894 21.3597 24.375 21.153 24.375 20.9375V3.0625C24.375 2.84701 24.2894 2.64035 24.137 2.48798C23.9847 2.3356 23.778 2.25 23.5625 2.25C23.347 2.25 23.1403 2.3356 22.988 2.48798C22.8356 2.64035 22.75 2.84701 22.75 3.0625ZM21.125 5.25625C17.316 7.21438 12.6604 8.2495 8.125 8.55988V15.4385C8.4175 15.4548 8.70837 15.4743 8.99763 15.497C13.1706 15.8041 17.2738 16.706 21.125 18.7356V5.25625ZM6.5 15.3556V8.64438C5.42132 8.68385 4.34227 8.71202 3.263 8.72888C2.82875 8.73398 2.41385 8.9093 2.10754 9.21714C1.80122 9.52497 1.62795 9.94074 1.625 10.375V13.625C1.625 14.5188 2.353 15.2533 3.25975 15.2646C4.34026 15.2771 5.42049 15.3075 6.5 15.3556ZM5.43237 16.94L8.047 21.8751L8.06325 21.9141H8.95375L8.9505 21.8914L8.23063 17.0716C7.29848 17.0154 6.36565 16.971 5.43237 16.9384V16.94Z" fill="#4A6FDA"/>
</svg>
