<svg width="25" height="25" viewBox="0 0 25 25" fill="none" xmlns="http://www.w3.org/2000/svg">
<path d="M10.5466 14.0625C10.5466 14.2943 10.4779 14.5209 10.3491 14.7136C10.2203 14.9063 10.0373 15.0565 9.82319 15.1452C9.60906 15.2339 9.37344 15.2571 9.14612 15.2119C8.91879 15.1667 8.70999 15.0551 8.5461 14.8912C8.38221 14.7273 8.2706 14.5185 8.22538 14.2912C8.18016 14.0638 8.20337 13.8282 8.29207 13.6141C8.38076 13.4 8.53097 13.2169 8.72368 13.0882C8.91639 12.9594 9.14296 12.8907 9.37474 12.8907C9.68554 12.8907 9.98361 13.0141 10.2034 13.2339C10.4231 13.4537 10.5466 13.7517 10.5466 14.0625ZM15.6247 12.8907C15.393 12.8907 15.1664 12.9594 14.9737 13.0882C14.781 13.2169 14.6308 13.4 14.5421 13.6141C14.4534 13.8282 14.4302 14.0638 14.4754 14.2912C14.5206 14.5185 14.6322 14.7273 14.7961 14.8912C14.96 15.0551 15.1688 15.1667 15.3961 15.2119C15.6234 15.2571 15.8591 15.2339 16.0732 15.1452C16.2873 15.0565 16.4703 14.9063 16.5991 14.7136C16.7279 14.5209 16.7966 14.2943 16.7966 14.0625C16.7966 13.7517 16.6731 13.4537 16.4534 13.2339C16.2336 13.0141 15.9355 12.8907 15.6247 12.8907ZM23.6726 18.2163C22.0537 19.6233 19.8774 20.6899 17.3786 21.3007C17.2567 21.3306 17.1316 21.3458 17.006 21.3458C16.7167 21.3454 16.4333 21.2641 16.1878 21.1111C15.9422 20.9582 15.7443 20.7397 15.6163 20.4802L14.6896 18.6267C13.9625 18.709 13.2314 18.7502 12.4997 18.75C11.7681 18.7502 11.0369 18.709 10.3099 18.6267L9.38314 20.4802C9.25517 20.7397 9.05726 20.9582 8.81171 21.1111C8.56617 21.2641 8.28277 21.3454 7.99349 21.3458C7.86791 21.3458 7.7428 21.3306 7.62083 21.3007C5.1221 20.6898 2.94573 19.6233 1.32708 18.2163C1.09909 18.0187 0.932851 17.7595 0.84822 17.4698C0.763589 17.1802 0.76415 16.8723 0.849834 16.583L4.16771 5.52367C4.23416 5.30073 4.34969 5.0955 4.50582 4.92303C4.66194 4.75056 4.8547 4.61524 5.06995 4.52699C6.04992 4.12572 7.06343 3.81183 8.09866 3.58901C8.47563 3.50618 8.86992 3.56586 9.20549 3.75654C9.54106 3.94721 9.79415 4.25538 9.91595 4.62162L10.4934 6.35395C11.8274 6.21547 13.1722 6.21547 14.5063 6.35395L15.0837 4.62162C15.2056 4.25543 15.4586 3.9473 15.7942 3.75663C16.1297 3.56596 16.524 3.50625 16.9009 3.58901C17.9362 3.81183 18.9499 4.12575 19.9299 4.52709C20.1451 4.61534 20.3378 4.75065 20.4939 4.9231C20.65 5.09555 20.7655 5.30076 20.832 5.52367L24.1497 16.583C24.2354 16.8723 24.236 17.1801 24.1514 17.4698C24.0668 17.7594 23.9006 18.0186 23.6726 18.2163ZM22.6475 17.0371L19.3353 5.9726C18.4403 5.60582 17.5145 5.31912 16.5688 5.11586L16.0773 6.585C16.7192 6.70739 17.353 6.86915 17.975 7.06938C18.1721 7.13334 18.3357 7.27297 18.4299 7.45757C18.524 7.64217 18.541 7.8566 18.477 8.0537C18.4131 8.2508 18.2734 8.41442 18.0888 8.50856C17.9042 8.60271 17.6898 8.61966 17.4927 8.5557C15.9947 8.06938 14.2681 7.81254 12.4997 7.81254C10.7318 7.81254 9.00511 8.06938 7.50657 8.5557C7.30947 8.61964 7.09505 8.60266 6.91047 8.5085C6.72589 8.41433 6.58628 8.2507 6.52234 8.0536C6.45841 7.85651 6.47539 7.64208 6.56955 7.4575C6.66372 7.27292 6.82734 7.13331 7.02444 7.06938C7.64683 6.86909 8.28093 6.70726 8.92317 6.58481L8.43353 5.11586C7.48746 5.31863 6.56124 5.60491 5.66575 5.97133L2.34642 17.0319C3.78372 18.2814 5.73392 19.2309 7.99192 19.7829L8.69427 18.3696C8.13006 18.2539 7.57262 18.1073 7.02444 17.9306C6.82902 17.8653 6.66729 17.7255 6.57447 17.5415C6.48166 17.3576 6.46527 17.1444 6.52887 16.9484C6.59248 16.7525 6.73093 16.5895 6.91408 16.4951C7.09723 16.4008 7.31025 16.3825 7.50677 16.4445C9.00482 16.9306 10.7314 17.1875 12.4997 17.1875C14.268 17.1875 15.9946 16.9307 17.4927 16.4444C17.6898 16.3804 17.9042 16.3974 18.0888 16.4916C18.2734 16.5857 18.413 16.7493 18.477 16.9464C18.5409 17.1435 18.524 17.358 18.4298 17.5425C18.3357 17.7271 18.172 17.8668 17.9749 17.9307C17.4276 18.1071 16.8711 18.2535 16.3077 18.3691L17.0138 19.7814C19.2656 19.2309 21.2158 18.2814 22.6475 17.0371V17.0371Z" fill="#4A6FDA"/>
</svg>
