<svg width="20" height="20" viewBox="0 0 20 20" fill="none" xmlns="http://www.w3.org/2000/svg">
<path fill-rule="evenodd" clip-rule="evenodd" d="M19.5999 9.98672C19.5999 10.6359 19.5338 11.2843 19.404 11.9162C19.2774 12.5332 19.0899 13.1389 18.8443 13.7179C18.6043 14.2867 18.3066 14.8348 17.9588 15.346C17.6161 15.8539 17.2214 16.3304 16.7878 16.7648C16.3532 17.1973 15.8751 17.5909 15.3674 17.935C14.8545 18.2805 14.3056 18.5777 13.7365 18.8188C13.1567 19.0632 12.5496 19.2504 11.9331 19.3768C11.3003 19.5069 10.6496 19.5734 9.99947 19.5734C9.34882 19.5734 8.69816 19.5069 8.06626 19.3768C7.44889 19.2504 6.84183 19.0632 6.26241 18.8188C5.69333 18.5777 5.14391 18.2805 4.63108 17.935C4.1234 17.591 3.64525 17.1973 3.21163 16.7648C2.77756 16.3304 2.38283 15.8539 2.03969 15.346C1.69374 14.8348 1.39557 14.2867 1.15464 13.7179C0.908974 13.1389 0.721022 12.5332 0.593979 11.9162C0.465547 11.2843 0.399902 10.6359 0.399902 9.98672C0.399902 9.337 0.465509 8.68728 0.594017 8.0567C0.721059 7.43974 0.909011 6.8331 1.15468 6.25501C1.39561 5.68582 1.69377 5.13722 2.03973 4.62603C2.38287 4.1177 2.7776 3.64208 3.21167 3.20721C3.64529 2.77466 4.12343 2.38197 4.63112 2.03839C5.14394 1.6915 5.69337 1.3943 6.26245 1.15274C6.84186 0.907873 7.44889 0.720192 8.06629 0.594759C8.6982 0.465574 9.34885 0.400024 9.99951 0.400024C10.6497 0.400024 11.3003 0.465574 11.9332 0.594759C12.5496 0.72023 13.1567 0.907911 13.7366 1.15274C14.3056 1.39426 14.8546 1.6915 15.3674 2.03839C15.8751 2.38197 16.3533 2.77466 16.7878 3.20721C17.2214 3.64208 17.6162 4.1177 17.9588 4.62603C18.3066 5.13722 18.6043 5.68585 18.8443 6.25501C19.0899 6.8331 19.2774 7.43974 19.404 8.0567C19.5338 8.68728 19.5999 9.337 19.5999 9.98672ZM6.50144 2.58183C4.2152 3.65988 2.50886 5.76351 1.9768 8.29874C2.19293 8.30061 5.60936 8.34369 9.54564 7.29932C8.12668 4.78188 6.61067 2.72745 6.50144 2.58183ZM10.2249 8.55997C6.0036 9.82191 1.9529 9.73111 1.80759 9.72552C1.80522 9.81351 1.80102 9.89868 1.80102 9.98671C1.80102 12.0898 2.59559 14.0072 3.90159 15.4569C3.89877 15.4527 6.14236 11.4781 10.5666 10.0494C10.6735 10.0139 10.7823 9.98202 10.8901 9.95114C10.6843 9.48587 10.4597 9.01964 10.2249 8.55997ZM15.4138 3.84243C13.9704 2.57152 12.0752 1.80061 9.99944 1.80061C9.33331 1.80061 8.68686 1.88113 8.06762 2.02997C8.19042 2.19477 9.73037 4.23472 11.1325 6.80548C14.2259 5.64743 15.3936 3.87238 15.4138 3.84243ZM11.4489 11.3077C11.4307 11.3137 11.4124 11.3189 11.3946 11.3255C6.55736 13.0094 4.9777 16.4029 4.96061 16.4399C6.35243 17.5207 8.09815 18.1728 9.9995 18.1728C11.1348 18.1728 12.2163 17.942 13.2002 17.524C13.0788 16.8088 12.6026 14.3016 11.4489 11.3077ZM14.5808 16.776C16.4216 15.5356 17.729 13.5658 18.0937 11.2842C17.925 11.2299 15.6313 10.5048 12.985 10.9285C14.0604 13.8794 14.4973 16.2827 14.5808 16.776ZM11.7635 8.02536C11.9538 8.41577 12.138 8.81312 12.3082 9.21246C12.3687 9.35571 12.4278 9.49615 12.4854 9.63656C15.3018 9.28266 18.0765 9.87808 18.1951 9.9024C18.1763 7.96169 17.4811 6.18056 16.3308 4.78612C16.3153 4.80807 15.0004 6.70529 11.7635 8.02536Z" fill="#4A6FDA"/>
</svg>
