<svg width="20" height="20" viewBox="0 0 20 20" fill="none" xmlns="http://www.w3.org/2000/svg">
<path fill-rule="evenodd" clip-rule="evenodd" d="M10.0008 0.400024C7.39358 0.400024 7.06637 0.411425 6.04236 0.458025C5.02035 0.504826 4.32274 0.666627 3.71234 0.90403C3.08093 1.14923 2.54533 1.47724 2.01172 2.01104C1.47771 2.54465 1.14971 3.08025 0.903708 3.71146C0.665705 4.32206 0.503703 5.01987 0.457703 6.04148C0.411902 7.06549 0.399902 7.3929 0.399902 10.0001C0.399902 12.6074 0.411502 12.9336 0.457903 13.9576C0.504903 14.9796 0.666705 15.6772 0.903908 16.2876C1.14931 16.919 1.47731 17.4546 2.01112 17.9882C2.54453 18.5222 3.08013 18.851 3.71114 19.0962C4.32194 19.3336 5.01975 19.4954 6.04156 19.5422C7.06557 19.5888 7.39258 19.6002 9.9996 19.6002C12.607 19.6002 12.9332 19.5888 13.9572 19.5422C14.9793 19.4954 15.6777 19.3336 16.2885 19.0962C16.9197 18.851 17.4545 18.5222 17.9879 17.9882C18.5219 17.4546 18.8499 16.919 19.0959 16.2878C19.3319 15.6772 19.4939 14.9794 19.5419 13.9578C19.5879 12.9338 19.5999 12.6074 19.5999 10.0001C19.5999 7.3929 19.5879 7.06569 19.5419 6.04168C19.4939 5.01967 19.3319 4.32207 19.0959 3.71166C18.8499 3.08025 18.5219 2.54465 17.9879 2.01104C17.4539 1.47704 16.9199 1.14903 16.2879 0.90403C15.6759 0.666627 14.9779 0.504826 13.9558 0.458025C12.9318 0.411425 12.6058 0.400024 9.9978 0.400024H10.0008ZM9.13955 2.13002C9.39515 2.12962 9.68036 2.13002 10.0008 2.13002C12.564 2.13002 12.8678 2.13922 13.88 2.18522C14.816 2.22802 15.324 2.38442 15.6624 2.51582C16.1104 2.68982 16.4298 2.89782 16.7656 3.23383C17.1016 3.56983 17.3096 3.88983 17.484 4.33784C17.6154 4.67584 17.772 5.18385 17.8146 6.11986C17.8606 7.13187 17.8706 7.43587 17.8706 9.9979C17.8706 12.5599 17.8606 12.8639 17.8146 13.8759C17.7718 14.8119 17.6154 15.32 17.484 15.658C17.31 16.106 17.1016 16.425 16.7656 16.7608C16.4296 17.0968 16.1106 17.3048 15.6624 17.4788C15.3244 17.6108 14.816 17.7668 13.88 17.8096C12.868 17.8556 12.564 17.8656 10.0008 17.8656C7.43734 17.8656 7.13353 17.8556 6.12152 17.8096C5.18551 17.7664 4.67751 17.61 4.3389 17.4786C3.8909 17.3046 3.57089 17.0966 3.23489 16.7606C2.89889 16.4246 2.69089 16.1054 2.51648 15.6572C2.38508 15.3192 2.22848 14.8111 2.18588 13.8751C2.13988 12.8631 2.13068 12.5591 2.13068 9.9955C2.13068 7.43187 2.13988 7.12947 2.18588 6.11746C2.22868 5.18145 2.38508 4.67344 2.51648 4.33504C2.69049 3.88703 2.89889 3.56703 3.23489 3.23103C3.57089 2.89502 3.8909 2.68702 4.3389 2.51262C4.67731 2.38062 5.18551 2.22462 6.12152 2.18162C7.00713 2.14162 7.35033 2.12962 9.13955 2.12762V2.13002ZM15.1252 3.72404C14.4892 3.72404 13.9732 4.23944 13.9732 4.87565C13.9732 5.51165 14.4892 6.02766 15.1252 6.02766C15.7612 6.02766 16.2772 5.51165 16.2772 4.87565C16.2772 4.23964 15.7612 3.72404 15.1252 3.72404ZM10.0008 5.07005C7.27819 5.07005 5.07077 7.27747 5.07077 10.0001C5.07077 12.7227 7.27819 14.9291 10.0008 14.9291C12.7234 14.9291 14.9301 12.7227 14.9301 10.0001C14.9301 7.27747 12.7234 5.07005 10.0008 5.07005ZM10.0008 6.80006C11.768 6.80006 13.2008 8.23268 13.2008 10.0001C13.2008 11.7673 11.768 13.2001 10.0008 13.2001C8.23336 13.2001 6.80075 11.7673 6.80075 10.0001C6.80075 8.23268 8.23336 6.80006 10.0008 6.80006Z" fill="#4A6FDA"/>
</svg>
