<svg width="32" height="32" viewBox="0 0 32 32" fill="none" xmlns="http://www.w3.org/2000/svg">
<path d="M8.69547 13.8027L9.75147 13.952L8.69547 13.8027ZM8.67413 13.952L7.61813 13.8027L8.67413 13.952ZM23.3045 13.8027L24.3605 13.6533L23.3045 13.8027ZM23.3259 13.952L22.2699 14.1013L23.3259 13.952ZM20.2667 26.6667V27.7333C20.5496 27.7333 20.8209 27.621 21.0209 27.4209C21.221 27.2209 21.3333 26.9496 21.3333 26.6667H20.2667ZM11.7333 26.6667H10.6667C10.6667 26.9496 10.779 27.2209 10.9791 27.4209C11.1791 27.621 11.4504 27.7333 11.7333 27.7333V26.6667ZM10.144 19.5264L10.9888 18.8736L10.144 19.5264ZM21.856 19.5264L21.0112 18.8736L21.856 19.5264ZM12.8 32H19.2V29.8667H12.8V32ZM7.63733 13.6533L7.616 13.8027L9.728 14.1013L9.74933 13.952L7.63733 13.6533ZM16 6.4C13.9664 6.39966 12.0009 7.13309 10.4647 8.46557C8.92838 9.79804 7.92448 11.6401 7.63733 13.6533L9.74933 13.952C9.96452 12.4477 10.7151 11.0715 11.8634 10.0761C13.0116 9.08069 14.4804 8.53291 16 8.53333V6.4ZM24.3627 13.6533C24.0755 11.6401 23.0716 9.79804 21.5354 8.46557C19.9991 7.13309 18.0336 6.39966 16 6.4V8.53333C17.5195 8.53336 18.988 9.0813 20.1362 10.0766C21.2843 11.0719 22.0351 12.4479 22.2507 13.952L24.3627 13.6533ZM24.384 13.8027L24.3627 13.6533L22.2507 13.952L22.272 14.1013L24.384 13.8027ZM22.6987 20.1792C24.0427 18.4427 24.7211 16.1792 24.384 13.8005L22.272 14.1035C22.3942 14.9424 22.3457 15.7973 22.1294 16.617C21.9131 17.4366 21.5335 18.2042 21.0133 18.8736L22.6987 20.1792ZM19.2 23.2533V26.6667H21.3333V23.2555H19.2V23.2533ZM20.2667 25.6H11.7333V27.7333H20.2667V25.6ZM12.8 26.6667V23.2555H10.6667V26.6667H12.8ZM7.616 13.8027C7.45383 14.9242 7.5195 16.067 7.80908 17.1626C8.09865 18.2582 8.60619 19.2842 9.30133 20.1792L10.9867 18.8736C10.4665 18.2042 10.0869 17.4366 9.87062 16.617C9.65433 15.7973 9.60582 14.9424 9.728 14.1035L7.616 13.8005V13.8027ZM12.8 23.2533C12.8 21.4976 11.8656 20.0043 10.9867 18.8715L9.30133 20.1771C10.1184 21.2331 10.6667 22.2421 10.6667 23.2533H12.8ZM21.0133 18.8715C20.1323 20.0064 19.2 21.4976 19.2 23.2533H21.3333C21.3333 22.2421 21.8816 21.2331 22.6987 20.1771L21.0133 18.8715V18.8715ZM14.9333 0V4.26667H17.0667V0H14.9333ZM0 17.0667H4.26667V14.9333H0V17.0667ZM27.7333 17.0667H32V14.9333H27.7333V17.0667ZM7.1552 7.77813L3.9552 4.57813L2.4448 6.08853L5.6448 9.28853L7.1552 7.77813ZM26.3552 9.28853L29.5552 6.08853L28.0448 4.57813L24.8448 7.77813L26.3552 9.28853Z" fill="#4A6FDA"/>
</svg>
