<svg width="36" height="36" viewBox="0 0 36 36" fill="none" xmlns="http://www.w3.org/2000/svg">
<path d="M9.79995 18.8H26.2V21.88H27.7999V17.2H18.8V14H17.2V17.2H8.19995V21.88H9.79995V18.8Z" fill="#4A6FDA"/>
<path d="M14 23H4C3.46957 23 2.96086 23.2107 2.58579 23.5858C2.21071 23.9609 2 24.4696 2 25V31C2 31.5304 2.21071 32.0391 2.58579 32.4142C2.96086 32.7893 3.46957 33 4 33H14C14.5304 33 15.0391 32.7893 15.4142 32.4142C15.7893 32.0391 16 31.5304 16 31V25C16 24.4696 15.7893 23.9609 15.4142 23.5858C15.0391 23.2107 14.5304 23 14 23ZM4 31V25H14V31H4Z" fill="#4A6FDA"/>
<path d="M32 23H22C21.4696 23 20.9609 23.2107 20.5858 23.5858C20.2107 23.9609 20 24.4696 20 25V31C20 31.5304 20.2107 32.0391 20.5858 32.4142C20.9609 32.7893 21.4696 33 22 33H32C32.5304 33 33.0391 32.7893 33.4142 32.4142C33.7893 32.0391 34 31.5304 34 31V25C34 24.4696 33.7893 23.9609 33.4142 23.5858C33.0391 23.2107 32.5304 23 32 23ZM22 31V25H32V31H22Z" fill="#4A6FDA"/>
<path d="M13 13H23C23.5304 13 24.0391 12.7893 24.4142 12.4142C24.7893 12.0391 25 11.5304 25 11V5C25 4.46957 24.7893 3.96086 24.4142 3.58579C24.0391 3.21071 23.5304 3 23 3H13C12.4696 3 11.9609 3.21071 11.5858 3.58579C11.2107 3.96086 11 4.46957 11 5V11C11 11.5304 11.2107 12.0391 11.5858 12.4142C11.9609 12.7893 12.4696 13 13 13ZM13 5H23V11H13V5Z" fill="#4A6FDA"/>
</svg>
