<svg width="18" height="16" viewBox="0 0 18 16" fill="none" xmlns="http://www.w3.org/2000/svg">
<path fill-rule="evenodd" clip-rule="evenodd" d="M8.4609 4.63061L8.49867 5.25345L7.86914 5.17719C5.57765 4.88483 3.57574 3.89337 1.876 2.22823L1.04502 1.40201L0.830981 2.01214C0.377719 3.37222 0.667303 4.80857 1.6116 5.77461C2.11523 6.30847 2.00191 6.38474 1.13316 6.06696C0.830981 5.96527 0.566578 5.88901 0.541397 5.92714C0.453263 6.01612 0.755438 7.17282 0.99466 7.63042C1.32202 8.26597 1.98932 8.88881 2.71958 9.25743L3.33652 9.54978L2.60626 9.56249C1.90118 9.56249 1.876 9.57521 1.95155 9.84214C2.20336 10.6684 3.19802 11.5454 4.30599 11.9267L5.08661 12.1937L4.40672 12.6004C3.39947 13.1851 2.21595 13.5156 1.03243 13.541C0.465853 13.5538 0 13.6046 0 13.6427C0 13.7698 1.53606 14.4817 2.42999 14.7613C5.11179 15.5875 8.29722 15.2316 10.6894 13.8207C12.3892 12.8165 14.0889 10.8209 14.8821 8.88881C15.3102 7.85922 15.7383 5.97798 15.7383 5.0755C15.7383 4.49079 15.7761 4.41453 16.4811 3.71542C16.8966 3.30867 17.2869 2.86378 17.3625 2.73667C17.4884 2.49516 17.4758 2.49516 16.8337 2.71125C15.7635 3.09258 15.6124 3.04173 16.1412 2.46974C16.5315 2.06298 16.9973 1.32574 16.9973 1.10966C16.9973 1.07152 16.8085 1.13508 16.5944 1.24948C16.3678 1.37659 15.8642 1.56725 15.4865 1.68165L14.8066 1.89774L14.1896 1.47828C13.8497 1.24948 13.3712 0.995258 13.1194 0.918992C12.4773 0.741037 11.4952 0.766459 10.9161 0.969836C9.34225 1.54183 8.34759 3.01631 8.4609 4.63061Z" fill="#4A6FDA"/>
</svg>
