<svg width="20" height="15" viewBox="0 0 20 15" fill="none" xmlns="http://www.w3.org/2000/svg">
<path fill-rule="evenodd" clip-rule="evenodd" d="M17.5011 0.812021C18.3272 1.03872 18.9779 1.70668 19.1987 2.55494C19.5999 4.0923 19.5999 7.30002 19.5999 7.30002C19.5999 7.30002 19.5999 10.5076 19.1987 12.0451C18.9779 12.8934 18.3272 13.5613 17.5011 13.7881C16.0039 14.2 9.9999 14.2 9.9999 14.2C9.9999 14.2 3.99587 14.2 2.49859 13.7881C1.67245 13.5613 1.02183 12.8934 0.80103 12.0451C0.399902 10.5076 0.399902 7.30002 0.399902 7.30002C0.399902 7.30002 0.399902 4.0923 0.80103 2.55494C1.02183 1.70668 1.67245 1.03872 2.49859 0.812021C3.99587 0.400024 9.9999 0.400024 9.9999 0.400024C9.9999 0.400024 16.0039 0.400024 17.5011 0.812021ZM8.19992 4.59996V10.6L12.9999 7.60007L8.19992 4.59996Z" fill="#4A6FDA"/>
</svg>
